<svg width="252" height="72" viewBox="0 0 252 72" fill="none" xmlns="http://www.w3.org/2000/svg">
<mask id="mask0_2602_195" style="mask-type:luminance" maskUnits="userSpaceOnUse" x="0" y="0" width="252" height="72">
<path d="M251.885 0H0V71.3304H251.885V0Z" fill="white"/>
</mask>
<g mask="url(#mask0_2602_195)">
<path d="M68.0084 17.2177C64.4682 17.2177 62.0342 18.5593 60.4853 21.019C58.9363 23.4786 58.9363 24.5967 58.9363 28.398V30.4104H56.0599V35.7771H58.9363V55.9016H65.132V35.7771H71.5488V30.4104H65.132V28.398C65.132 24.3731 65.3531 23.7022 67.5659 22.8079C68.0084 22.5843 68.4511 22.5843 68.8935 22.5843C69.5574 22.5843 70.2212 22.8079 70.6637 23.0315L71.5488 23.4786V18.3357L71.3275 18.1121C70.4425 17.4413 69.336 17.2177 68.0084 17.2177ZM75.3104 16.7705H81.5061V55.9016H75.3104V16.7705ZM99.8717 29.9632C92.5697 29.9632 86.8166 35.7771 86.8166 43.156C86.8166 50.5349 92.5697 56.3488 99.8717 56.3488C107.174 56.3488 112.927 50.5349 112.927 43.156C112.927 35.7771 107.174 29.9632 99.8717 29.9632ZM99.8717 51.2058C95.8888 51.2058 92.791 47.8518 92.791 43.156C92.791 38.4602 95.8888 35.1061 99.8717 35.1061C103.855 35.1061 106.952 38.4602 106.952 43.156C106.952 47.8518 103.855 51.2058 99.8717 51.2058ZM172.891 46.2865L168.466 32.8701L167.581 30.4104H163.155L162.491 32.8701L158.066 46.2865L152.756 30.6339L152.977 30.4104H146.56L146.781 30.8577L141.471 46.2865L137.045 32.8701L136.16 30.4104H131.735L130.628 32.8701L126.203 46.2865L120.893 30.4104H114.697L124.212 55.9016H127.973L133.505 41.1436L139.037 55.9016H142.798L149.215 38.9074L155.632 55.9016H159.394L164.926 41.1436L170.457 55.9016H174.883L184.619 30.4104H178.423L172.891 46.2865ZM198.78 29.9632C191.478 29.9632 185.725 35.7771 185.725 43.156C185.725 50.5349 191.478 56.3488 198.78 56.3488C206.082 56.3488 211.835 50.5349 211.835 43.156C211.835 35.7771 206.082 29.9632 198.78 29.9632ZM198.78 51.2058C194.797 51.2058 191.699 47.8518 191.699 43.156C191.699 38.4602 194.797 35.1061 198.78 35.1061C202.763 35.1061 205.861 38.4602 205.861 43.156C205.861 47.8518 202.763 51.2058 198.78 51.2058ZM245.468 30.4104L240.158 46.2865L235.734 32.8701L234.846 30.4104H230.422L229.757 32.8701L225.333 46.2865L220.022 30.4104H213.827L223.563 55.9016H227.323L232.856 41.1436L238.388 55.9016H242.149L251.885 30.4104H245.468ZM23.7541 46.7337L23.5328 32.8701C29.9496 31.9756 34.5963 28.1744 37.0305 21.4662C39.2431 15.6524 39.6858 6.9318 39.0219 2.23605C35.2602 3.13049 29.5071 6.26098 27.737 7.82621C26.4094 5.36654 23.3117 1.78885 21.0989 0C18.8861 2.01245 15.7883 5.36654 14.4607 7.82621C12.6905 6.26098 6.93746 3.13049 3.17583 2.23605C2.51201 6.9318 2.95455 15.6524 5.16728 21.4662C7.60128 28.1744 12.248 31.9756 18.6649 32.8701V46.9572C18.6649 46.9572 18.6649 46.7337 18.4436 46.7337C15.1245 41.3672 8.70763 35.5533 0.299296 33.3173C-1.47088 48.0753 4.50346 65.5165 21.0989 71.3304C37.6943 65.5165 43.6687 47.8518 41.8983 33.0937C33.4901 35.5533 27.2946 41.3672 23.7541 46.7337ZM4.946 40.4726C11.3629 44.2741 18.6649 51.4294 18.4436 64.8458C10.2565 59.4793 5.8311 51.4294 4.946 40.4726ZM21.0989 27.9508C10.6991 27.9508 8.26507 18.5593 7.82254 9.16785C10.6991 10.7331 13.3543 12.9692 15.5671 15.4288C17.1159 12.0747 18.4436 9.61507 21.0989 6.9318C23.7541 9.61507 25.0818 12.0747 26.6307 15.4288C28.8433 13.1928 31.4986 10.7331 34.3752 9.39147C33.9325 18.5593 31.4986 27.9508 21.0989 27.9508ZM23.7541 64.8458C23.7541 51.4294 31.0561 44.0505 37.2516 40.4726C36.5878 51.4294 32.1624 59.4793 23.7541 64.8458Z" fill="white"/>
</g>
</svg>
