<svg width="255" height="40" viewBox="0 0 255 40" fill="none" xmlns="http://www.w3.org/2000/svg">
<g clip-path="url(#clip0_2602_200)">
<path fill-rule="evenodd" clip-rule="evenodd" d="M215.18 11.4335H222.221V17.1088H214.843C213.424 17.1088 210.898 18.2311 210.871 21.3653V39.8101H202.358V20.7212C202.358 18.6142 203.044 16.5697 204.367 14.816C205.489 13.2837 207.009 12.2948 208.92 11.8436C210.143 11.557 212.477 11.4335 215.18 11.4335ZM185.332 11.4335V39.8101H176.819V11.4335H185.332ZM93.2867 11.4335C95.9939 11.4335 97.6057 11.6733 98.9138 12.1486C100.25 12.5913 101.502 13.2695 102.452 14.1917C103.695 15.4247 104.507 16.5612 105.148 18.0963C105.564 19.5208 105.906 19.8812 105.906 23.7419V39.8101H84.9639C82.6399 39.8101 80.6365 39.3149 79.0162 37.7599C77.393 36.2105 76.5644 33.3998 76.5644 31.0304C76.5644 28.5276 77.4924 26.3965 78.9864 24.7875C80.4804 23.1403 81.7786 22.8125 84.0374 22.8125L97.8696 22.8026L97.8468 21.1752C97.9774 19.6386 96.2876 17.1429 93.7961 17.1173L90.0078 17.1003L78.9197 17.1301V11.4335H93.2867ZM51.962 0.0829163V11.4477H61.8143C65.1628 11.5825 67.9834 13.0297 70.2067 15.917C72.2739 18.6071 73.3097 21.8378 73.3097 25.5409C73.3097 29.4016 72.2739 32.7315 70.2365 35.5493C68.0174 38.5927 65.1996 39.8101 61.7178 39.8101H43.5483V0.0829163H51.962ZM151.28 0.0829163V25.6856L162.426 11.5825H172.534L160.558 25.6942L172.562 39.8101H162.368L151.28 25.6998V39.8101H142.767V0.0829163H151.28ZM126.584 11.4335C129.173 11.4335 131.072 11.5555 132.239 11.8436C134.074 12.2948 135.527 13.2837 136.601 14.8146C137.861 16.5683 138.493 18.5135 138.493 20.6204L138.51 39.8101H129.997L130.029 21.6321C130.013 16.9542 125.297 17.0833 125.297 17.0833L118.647 17.0947V39.8101L110.134 39.776V11.4335H126.584ZM235.09 11.4335L235.059 29.6115C235.076 34.2894 239.792 34.1603 239.792 34.1603L246.441 34.1489V11.4335L254.954 11.4676V39.8101H238.505C235.916 39.8101 234.017 39.688 232.848 39.4C231.014 38.9488 229.562 37.9599 228.488 36.429C227.228 34.6753 226.594 32.7301 226.594 30.6232L226.577 11.4335H235.09ZM58.893 17.1088H51.9194V34.1348H59.2604C61.129 34.1348 62.6316 33.2735 63.7666 31.5993C64.9272 29.9208 65.5118 27.9387 65.5118 25.7353C65.5118 23.468 64.9003 21.4547 63.6389 19.7152C62.3904 17.9616 60.8254 17.1088 58.8944 17.1088H58.893ZM97.8085 28.4595L86.9375 28.4779C86.9375 28.4779 85.5258 28.4935 84.7965 29.0937C84.1098 29.6882 83.6586 30.4912 83.6586 31.473C83.6586 32.3527 84.0942 33.0593 84.7511 33.6197C85.4406 34.1887 85.9798 34.1333 86.8438 34.1333H97.8468L97.8085 28.4595Z" fill="white"/>
<path fill-rule="evenodd" clip-rule="evenodd" d="M176.818 1.50174H185.331V8.59587H176.818V1.50174Z" fill="white"/>
<path fill-rule="evenodd" clip-rule="evenodd" d="M189.588 32.7158H198.101V39.81H189.588V32.7158Z" fill="white"/>
<path fill-rule="evenodd" clip-rule="evenodd" d="M19.3296 0.0829163H34.9367V8.59588H19.3296V0.0829163Z" fill="white"/>
<path fill-rule="evenodd" clip-rule="evenodd" d="M10.8164 15.6899H34.9365V24.2029H10.8164V15.6899Z" fill="white"/>
<path fill-rule="evenodd" clip-rule="evenodd" d="M0.884766 31.297H34.9366V39.81H0.884766V31.297Z" fill="white"/>
</g>
<defs>
<clipPath id="clip0_2602_200">
<rect width="254.069" height="39.7271" fill="white" transform="translate(0.884766 0.0828857)"/>
</clipPath>
</defs>
</svg>
