<svg width="378" height="72" viewBox="0 0 378 72" fill="none" xmlns="http://www.w3.org/2000/svg">
<path d="M194.77 0.998311L221.872 0.873108C228.373 0.873785 234.607 3.45647 239.204 8.05314C243.8 12.6498 246.383 18.884 246.384 25.3847V46.5107C246.384 49.7295 245.75 52.9168 244.518 55.8905C243.286 58.8643 241.481 61.5662 239.204 63.8422C236.928 66.1181 234.226 67.9233 231.252 69.1549C228.278 70.3864 225.091 71.0201 221.872 71.0198H194.926C191.707 71.02 188.52 70.3862 185.546 69.1547C182.572 67.9231 179.87 66.1179 177.594 63.8421C175.318 61.566 173.513 58.864 172.282 55.8903C171.05 52.9166 170.416 49.7294 170.417 46.5107V25.3847C170.417 11.8449 181.232 0.998311 194.77 0.998311Z" fill="white"/>
<path d="M201.351 40.5344V39.3436H194.179V34.0443H208.16V40.3478C208.16 50.2695 203.423 56.0339 194.457 56.0339C185.215 56.0339 179.844 48.7517 179.844 35.9121C179.844 23.3918 185.706 15.7263 196.453 15.7263C200.515 15.7263 204.016 16.8021 205.93 18.2023V23.6576C203.18 21.9537 200.014 21.0405 196.78 21.0181C189.73 21.0181 186.743 25.8039 186.743 35.9121C186.743 45.7162 189.217 50.732 194.585 50.732C199.716 50.7575 201.351 46.7894 201.351 40.5344ZM237.161 41.2805C237.161 50.8061 232.026 56.0569 224.641 56.0569C217.257 56.0569 212.121 50.8061 212.121 41.352C212.121 31.8264 217.254 26.5755 224.641 26.5755C232.028 26.5755 237.161 31.8034 237.161 41.2805ZM230.229 41.2805C230.229 34.7444 228.362 31.8749 224.651 31.8749C220.941 31.8749 219.071 34.7444 219.071 41.352C219.071 47.8881 220.939 50.7601 224.651 50.7601C228.364 50.7601 230.229 47.8651 230.229 41.2805Z" fill="black"/>
<path d="M19.4295 21.6032H16.3634C10.7931 21.6032 7.8598 24.4267 7.8598 28.6069C7.8598 33.3442 9.8886 35.539 14.0688 38.3625L17.5004 40.6749L7.57873 55.4948H0.194336L9.08883 42.2361C3.95297 38.5746 1.08097 35.0255 1.08097 28.98C1.08097 21.4167 6.32671 16.3038 16.2918 16.3038H26.2109V55.4974H19.4066V21.6032H19.4295ZM54.2589 27.1351V55.4974H47.5592V43.6619H38.5932V55.4974H31.8936V27.1351H38.5932V38.3625H47.5592V27.1351H54.2589ZM84.5349 61.9645H78.3259V55.4744H63.2683V61.9645H57.0593V50.1877H59.1597C61.5181 45.4505 61.9857 36.4844 61.9857 29.5523V27.1249H81.5454V50.1877H84.5349V61.9645ZM74.8458 32.4345H67.7501V33.2752C67.7501 38.176 67.2391 45.9028 65.3687 50.198H74.8458V32.4345ZM99.5899 56.0339C91.025 56.0339 86.1676 51.2481 86.1676 41.375C86.1676 32.8076 90.0668 26.5551 98.2382 26.5551C104.938 26.5551 109.279 30.2882 109.279 40.1409V43.6874H93.1023C93.3809 48.4272 95.2487 50.7371 100.152 50.7371C103.42 50.7371 106.921 49.5004 108.998 48.0772V53.5606C107.038 54.9148 103.885 56.0339 99.5899 56.0339ZM93.1023 38.7381H102.462V38.1785C102.462 34.632 101.44 31.8775 98.1181 31.8775C94.9216 31.852 93.2889 34.2308 93.1023 38.7381ZM120.506 41.5615V55.4974H113.784V27.1351H120.506V40.2073L129.996 27.1351H136.767L127.29 40.2073L138.05 55.4744H130.428L120.506 41.5615ZM137.664 41.329C137.664 32.69 142.123 26.5526 150.696 26.5526C154.017 26.5526 156.509 27.1121 157.909 27.9068V33.6022C156.555 32.7616 154.01 31.852 151.419 31.852C147.029 31.852 144.602 35.0025 144.602 41.1655C144.602 47.0245 146.587 50.7601 151.373 50.7601C154.196 50.7601 156.227 50.0344 157.909 48.8437V54.3067C156.273 55.4974 154.076 56.0569 150.974 56.0569C142.005 56.0339 137.662 50.8061 137.662 41.329H137.664ZM255.779 16.3038H281.21V21.6032H271.904V55.4948H265.082V21.6032H255.779V16.3038ZM300.438 48.5576C300.438 50.8692 300.55 53.1816 300.775 55.4948H294.234C293.966 54.7682 293.794 54.0097 293.723 53.2386H293.442C292.144 54.5928 290.452 55.8883 286.505 55.8883C281.318 55.8883 277.817 52.6739 277.817 46.9223C277.817 41.1706 282.383 37.7876 292.637 37.7876H293.708V36.2085C293.708 33.1653 292.241 32.0359 289.027 32.0359C285.587 32.0359 281.64 33.5026 279.828 34.8466V29.2738C282.88 27.55 286.331 26.6558 289.837 26.6803C296.942 26.6803 300.438 29.2738 300.438 36.1523V48.5576ZM293.728 42.2438H292.76C287.008 42.2438 284.696 43.4268 284.696 46.7536C284.696 49.2909 286.106 50.9824 288.924 50.9824C291.293 50.9824 292.872 49.9603 293.718 48.7288L293.728 42.2438ZM312.56 41.5667V55.4948H305.85V27.1326H312.56V40.2226L322.034 27.1402H328.8L319.333 40.2226L330.103 55.505H322.489L312.56 41.5667ZM329.809 41.3418C329.809 32.713 334.263 26.5679 342.841 26.5679C346.162 26.5679 348.649 27.13 350.059 27.9196V33.615C348.705 32.7693 346.167 31.8673 343.574 31.8673C339.174 31.8673 336.749 35.0255 336.749 41.1706C336.749 47.0475 338.724 50.7575 343.518 50.7575C346.328 50.7575 348.373 50.0242 350.059 48.8412V54.3092C348.424 55.4948 346.226 56.0595 343.122 56.0595C334.153 56.0646 329.809 50.8138 329.809 41.3418ZM361.11 27.13V44.6686L371.484 27.13H377.294V55.4923H370.753V37.9562L360.377 55.4948H354.569V27.1326L361.11 27.13Z" fill="white"/>
</svg>
