<svg width="156" height="56" viewBox="0 0 156 56" fill="none" xmlns="http://www.w3.org/2000/svg">
<g clip-path="url(#clip0_2602_212)">
<path d="M21.7498 13.08C10.0577 13.08 0.534668 22.4972 0.534668 34.2422C0.534668 45.9344 10.0577 55.3516 21.7498 55.3516C33.4949 55.3516 43.0179 45.9344 43.0179 34.2422C43.0179 22.4972 33.4949 13.08 21.7498 13.08ZM21.7498 46.5163C15.2424 46.5163 9.89896 40.7496 9.89896 34.2422C9.89896 27.6819 15.2424 21.9152 21.7498 21.9152C28.3101 21.9152 33.6536 27.6819 33.6536 34.2422C33.6536 40.7496 28.3101 46.5163 21.7498 46.5163Z" fill="white"/>
<path d="M9.58165 9.90565C12.1211 9.90565 14.2373 7.78942 14.2373 5.19705C14.2373 2.65758 12.1211 0.541351 9.58165 0.541351C6.98927 0.541351 4.87305 2.65758 4.87305 5.19705C4.87305 7.78942 6.98927 9.90565 9.58165 9.90565Z" fill="white"/>
<path d="M33.9186 9.90565C36.458 9.90565 38.5743 7.78942 38.5743 5.19705C38.5743 2.65758 36.458 0.541351 33.9186 0.541351C31.3262 0.541351 29.21 2.65758 29.21 5.19705C29.21 7.78942 31.3262 9.90565 33.9186 9.90565Z" fill="white"/>
<path d="M21.7501 9.90565C24.2896 9.90565 26.4058 7.78942 26.4058 5.19705C26.4058 2.65758 24.2896 0.541351 21.7501 0.541351C19.1577 0.541351 17.0415 2.65758 17.0415 5.19705C17.0415 7.78942 19.1577 9.90565 21.7501 9.90565Z" fill="white"/>
<path d="M115.499 13.8207H105.182L92.961 30.8034V1.22913H83.5967V54.6109H92.961V37.6282L106.134 54.6109H117.192L100.95 33.9777L115.499 13.8207Z" fill="white"/>
<path d="M79.2058 13.8207H68.8892L56.668 30.8034V1.22913H47.3037V54.6109H56.668V37.6282L69.8415 54.6109H80.8988L64.6568 33.9777L79.2058 13.8207Z" fill="white"/>
<path d="M133.857 13.08C122.165 13.08 112.642 22.4972 112.642 34.2422C112.642 45.9344 122.165 55.3516 133.857 55.3516C145.602 55.3516 155.125 45.9344 155.125 34.2422C155.125 22.4972 145.602 13.08 133.857 13.08ZM133.804 46.5163C127.296 46.5163 121.953 40.7496 121.953 34.2422C121.953 27.6819 127.296 21.9152 133.804 21.9152C140.364 21.9152 145.708 27.6819 145.708 34.2422C145.708 40.7496 140.364 46.5163 133.804 46.5163Z" fill="white"/>
</g>
<defs>
<clipPath id="clip0_2602_212">
<rect width="154.59" height="54.8102" fill="white" transform="translate(0.534668 0.541351)"/>
</clipPath>
</defs>
</svg>
