<svg width="321" height="34" viewBox="0 0 321 34" fill="none" xmlns="http://www.w3.org/2000/svg">
<path d="M302.479 0.757324V3.72327C313.787 3.97045 320.522 8.72828 320.522 17.1317C320.522 25.5353 313.787 29.9225 302.479 30.1696V33.1355H293.52V30.1696C282.273 29.9225 275.538 25.5353 275.538 17.1317C275.538 8.72828 282.273 3.97045 293.52 3.72327V0.757324H302.479ZM293.52 23.8669V10.0877C287.34 10.3348 284.621 13.1772 284.621 17.1317C284.621 21.0864 287.34 23.6199 293.52 23.8669ZM302.479 10.0877V23.8669C308.719 23.6199 311.377 21.0864 311.377 17.1317C311.377 13.1772 308.719 10.3348 302.479 10.0877Z" fill="white"/>
<path d="M254.626 0.757324V3.72327C265.933 3.97045 272.668 8.72828 272.668 17.1317C272.668 25.5353 265.933 29.9225 254.626 30.1696V33.1355H245.666V30.1696C234.421 29.9225 227.686 25.5353 227.686 17.1317C227.686 8.72828 234.421 3.97045 245.666 3.72327V0.757324H254.626ZM245.666 23.8669V10.0877C239.488 10.3348 236.769 13.1772 236.769 17.1317C236.769 21.0864 239.488 23.6199 245.666 23.8669ZM254.626 10.0877V23.8669C260.867 23.6199 263.523 21.0864 263.523 17.1317C263.523 13.1772 260.867 10.3348 254.626 10.0877Z" fill="white"/>
<path d="M205.571 1.62262C217.559 1.62262 224.789 8.41952 224.789 17.1938C224.789 25.9681 217.559 32.765 205.571 32.765C193.523 32.765 186.293 25.9681 186.293 17.1938C186.293 8.41952 193.523 1.62262 205.571 1.62262ZM205.571 25.5974C211.503 25.5974 215.397 22.0135 215.397 17.1938C215.397 12.3742 211.503 8.85202 205.571 8.85202C199.579 8.85202 195.747 12.3742 195.747 17.1938C195.747 22.0135 199.579 25.5974 205.571 25.5974Z" fill="white"/>
<path d="M164.52 20.7158H162.048V31.838H153.089V2.42575H162.048V13.4862H164.52L175.334 2.42575H186.58L172.245 16.5141L187.137 31.838H175.21L164.52 20.7158Z" fill="white"/>
<path d="M135.171 31.838H117.003V2.42575H125.964V10.335H135.171C137.395 10.335 139.743 10.3967 141.72 11.1383C145.86 12.683 148.455 16.0814 148.455 20.963C148.455 26.0916 145.428 29.8608 140.794 31.1583C139.063 31.6527 137.21 31.838 135.171 31.838ZM133.626 17.2555H125.964V24.7322H133.626C135.171 24.7322 136.159 24.7322 137.148 24.2995C138.569 23.6817 139.434 22.3841 139.434 20.8394C139.434 19.3564 138.569 18.1206 137.086 17.6262C136.036 17.2555 134.862 17.2555 133.626 17.2555Z" fill="white"/>
<path d="M101.26 20.9011H86.8625V31.838H77.9028V2.42575H86.8625V13.1773H101.26V2.42575H110.219V31.838H101.26V20.9011Z" fill="white"/>
<path d="M47.76 19.5417L63.2075 2.42575H71.1168V31.838H62.1572V14.722L46.7095 31.838H38.8003V2.42575H47.76V19.5417Z" fill="white"/>
<path d="M22.3628 31.838H13.0942V10.2731H0.365234V2.42575H35.0916V10.2731H22.3628V31.838Z" fill="white"/>
</svg>
