<svg width="371" height="48" viewBox="0 0 371 48" fill="none" xmlns="http://www.w3.org/2000/svg">
<g clip-path="url(#clip0_2602_230)">
<path d="M32.0026 0.38208H23.2571C23.2571 0.38208 17.4753 7.23275 15.5319 9.46772C14.22 10.9739 11.4506 13.9862 10.0902 15.4438C9.45859 16.0755 7.56372 18.0189 7.56372 18.0189C7.56372 18.0189 9.45859 19.9138 10.0902 20.594C11.4992 22.0516 14.22 25.0639 15.5319 26.5701C17.5239 28.8051 23.2571 35.6557 23.2571 35.6557H31.954L17.0381 18.0189L32.0026 0.38208Z" fill="white"/>
<path d="M357.58 17.5817C353.353 16.8043 351.361 15.9297 351.361 14.2292C351.361 12.8688 352.964 11.0225 356.851 11.0225C360.835 11.0225 362.584 12.8202 362.876 14.5693H369.386C368.9 8.88471 364.625 5.62943 357.483 5.62943C349.903 5.62943 345.385 9.2734 345.093 13.9377C344.802 18.359 347.862 20.6912 350.097 21.6629C351.118 22.1002 352.138 22.4889 353.207 22.7804C354.665 23.2177 360.495 24.4323 361.467 24.7238C363.459 25.3555 364.673 25.9385 364.673 27.3961C364.673 28.1735 364.333 28.8051 363.702 29.3395C362.681 30.1655 361.369 30.6028 358.94 30.6028C357.677 30.6028 355.733 30.1655 354.47 29.4367C353.256 28.7079 352.235 27.5904 351.895 26.3272H345.044C345.579 30.2141 349.223 36.093 358.649 36.093C367.2 36.093 371.135 31.8174 371.135 27.2503C370.99 20.6426 365.402 19.0392 357.58 17.5817Z" fill="white"/>
<path d="M7.5638 0.38208H0.761719V35.6072H7.5638V0.38208Z" fill="white"/>
<path d="M192.483 6.21244V0.38208H169.016V35.6072H192.483V29.7768H176.255V21.1284H190.054V14.8608H176.255V6.21244H192.483Z" fill="white"/>
<path d="M329.497 17.5817C325.27 16.8043 323.278 15.9297 323.278 14.2292C323.278 12.8688 324.881 11.0225 328.768 11.0225C332.752 11.0225 334.501 12.8202 334.793 14.5693H341.303C340.818 8.88471 336.542 5.62943 329.4 5.62943C321.82 5.62943 317.302 9.2734 317.01 13.9377C316.719 18.359 319.78 20.6912 322.015 21.6629C323.035 22.1002 324.055 22.4889 325.124 22.7804C326.582 23.2177 332.412 24.4323 333.384 24.7238C335.376 25.3555 336.591 25.9385 336.591 27.3961C336.591 28.1735 336.25 28.8051 335.619 29.3395C334.599 30.1655 333.287 30.6028 330.857 30.6028C329.594 30.6028 327.651 30.1655 326.387 29.4367C325.173 28.7079 324.152 27.5904 323.812 26.3272H316.962C317.496 30.2141 321.14 36.093 330.566 36.093C339.117 36.093 343.053 31.8174 343.053 27.2503C342.907 20.6426 337.319 19.0392 329.497 17.5817Z" fill="white"/>
<path d="M135.152 35.6072V6.16388H142.148V10.3909C143.557 7.52429 146.861 5.58084 150.991 5.58084C157.987 5.58084 162.02 10.0994 162.02 17.3873V26.6673C162.02 28.9509 162.409 29.7768 164.012 29.7768C164.352 29.7768 164.692 29.7282 165.032 29.6796V35.5586C164.206 35.8015 163.235 35.8987 161.971 35.8987C157.356 35.8987 155.072 33.3236 155.072 28.1735V17.9703C155.072 13.8405 152.789 11.314 148.853 11.314C144.918 11.314 142.148 14.1806 142.148 18.3105V35.6072H135.152Z" fill="white"/>
<path d="M313.901 20.594C313.901 10.3423 307.439 5.67798 299.471 5.67798C290.191 5.67798 285.332 12.1885 285.332 21.177C285.332 30.3598 291.794 36.093 299.956 36.093C307.536 36.093 312.249 31.4287 313.609 26.3272H306.71C305.35 29.0966 302.58 30.6028 300.102 30.6028C295.146 30.6028 291.794 26.4729 291.794 22.7318H313.852L313.901 20.594ZM291.745 18.1647C291.988 14.958 295.098 11.4597 299.714 11.4597C304.184 11.4597 307.196 14.7636 307.244 18.1647H291.745Z" fill="white"/>
<path d="M227.417 6.16388H218.866L211.141 16.7071L203.415 6.16388H194.864L206.865 21.42L195.642 35.6072H204.193L211.141 26.0843L218.089 35.6072H226.64L215.416 21.42L227.417 6.16388Z" fill="white"/>
<path d="M130.001 29.7768C128.398 29.7768 128.009 28.9508 128.009 26.6673V22.1973V6.16384H120.721V10.0022C118.243 7.42709 115.134 5.67798 111.393 5.67798C103.424 5.67798 96.9624 12.4801 96.9624 20.8855C96.9624 29.2909 103.424 36.0444 111.393 36.093C113.336 36.093 115.279 35.7043 117.077 34.9269C118.778 34.1981 120.284 33.0807 121.498 31.7202C122.373 34.5382 124.511 35.8987 127.96 35.8987C129.175 35.8987 130.195 35.8015 131.021 35.5586V29.6796C130.681 29.7282 130.341 29.7768 130.001 29.7768ZM118.923 27.0074C117.514 28.8051 115.522 29.9711 113.336 30.2626C111.587 30.5056 109.838 30.1169 108.234 29.2423C106.582 28.3192 105.271 26.813 104.445 24.9182C103.619 23.0233 103.424 20.8855 103.813 18.8449C104.202 16.8042 105.222 15.0065 106.68 13.6947C108.089 12.4315 109.789 11.6541 111.538 11.4597C113.239 11.314 114.939 11.7027 116.397 12.5286C117.806 13.3546 118.972 14.5693 119.798 16.0754C120.575 17.533 121.013 19.185 121.013 20.8369C120.964 23.1205 120.235 25.3068 118.923 27.0074Z" fill="white"/>
<path d="M280.765 5.62943C276.586 5.62943 273.331 7.57288 271.922 10.4395V6.21246H264.926V35.6558H271.922V18.6991C271.922 14.6665 274.692 11.8485 278.627 11.8485C280.036 11.8485 281.251 12.1886 282.222 12.7716L285.721 6.98984C284.555 6.11529 282.757 5.62943 280.765 5.62943Z" fill="white"/>
<path d="M247.046 5.67798C243.305 5.67798 240.146 7.47567 237.717 10.0022V6.16384H230.478V47.5108H237.571V32.3519C238.689 33.4208 239.952 34.2953 241.361 34.9269C243.159 35.7043 245.054 36.1416 247.046 36.093C255.014 36.0444 261.476 29.2909 261.476 20.8855C261.476 12.4801 255.014 5.67798 247.046 5.67798ZM254.042 24.9182C253.216 26.7644 251.904 28.2706 250.252 29.2423C248.698 30.1655 246.9 30.5056 245.151 30.2626C242.964 29.9711 240.972 28.8051 239.563 27.0074C238.203 25.3068 237.474 23.1205 237.474 20.8855C237.474 19.2336 237.863 17.533 238.689 16.124C239.466 14.6179 240.632 13.4032 242.09 12.5772C243.548 11.7027 245.248 11.314 246.949 11.5083C248.746 11.6541 250.447 12.4315 251.807 13.7433C253.265 15.0551 254.236 16.9014 254.674 18.8935C255.062 20.8855 254.868 23.0233 254.042 24.9182Z" fill="white"/>
<path d="M64.2648 29.7768C62.6614 29.7768 62.2727 28.9508 62.2727 26.6673V22.1973V6.16384H54.9848V10.0022C52.5069 7.42709 49.3974 5.67798 45.6562 5.67798C37.6881 5.67798 31.2261 12.4801 31.2261 20.8855C31.2261 29.2909 37.6881 36.0444 45.6562 36.093C47.5997 36.093 49.5431 35.7043 51.3408 34.9269C53.0413 34.1981 54.5475 33.0807 55.7622 31.7202C56.6367 34.5382 58.7745 35.8987 62.2241 35.8987C63.4388 35.8987 64.4591 35.8015 65.2851 35.5586V29.6796C64.945 29.7282 64.6049 29.7768 64.2648 29.7768ZM53.1385 27.0074C51.7295 28.8051 49.7375 29.9711 47.5511 30.2626C45.802 30.5056 44.0529 30.1169 42.4495 29.2423C40.7976 28.3192 39.4857 26.813 38.6598 24.9182C37.8338 23.0233 37.6395 20.8855 38.0282 18.8449C38.4168 16.8042 39.4372 15.0065 40.8947 13.6947C42.3038 12.4315 44.0043 11.6541 45.7534 11.4597C47.4539 11.314 49.1544 11.7027 50.612 12.5286C52.021 13.3546 53.1871 14.5693 54.0131 16.0754C54.7904 17.533 55.2277 19.185 55.2277 20.8369C55.2277 23.1205 54.4989 25.3068 53.1385 27.0074Z" fill="white"/>
<path d="M94.4844 11.9942V6.16388H69.2681V11.9457H85.7388L69.2681 29.8254V35.6072H94.4844V29.8254H78.0136L94.4844 11.9942Z" fill="white"/>
</g>
<defs>
<clipPath id="clip0_2602_230">
<rect width="370.228" height="47.1287" fill="white" transform="translate(0.761719 0.38208)"/>
</clipPath>
</defs>
</svg>
