<svg width="1020" height="984" viewBox="0 0 1020 984" fill="none" xmlns="http://www.w3.org/2000/svg">
<path d="M76.1537 707.308V59.7444C76.1537 47.1362 85.5423 36.5011 98.0531 34.9374L349.483 3.51217C364.404 1.64723 377.584 13.2819 377.584 28.3192V718.886C377.584 733.144 365.677 744.515 351.434 743.859L100.004 732.281C86.6579 731.667 76.1537 720.668 76.1537 707.308Z" fill="#6E39B2"/>
<path d="M54.1223 342.541C59.3523 340.484 62.1337 341.054 67.6416 341.549C73.1495 342.045 73.1162 342.393 76.1537 342.541V364.352C76.1537 375.258 81.8328 387.432 84.6659 390.625C87.4989 393.818 83.5745 404.569 78.1565 412.933C76.0631 416.944 72.1643 416.772 69.1437 416.898H56.6259C45.9676 416.825 40.9316 415.6 35.0952 409.463C27.9905 401.115 25.4314 395.082 22.5773 382.694C20.5127 371.597 21.1261 365.777 31.0894 357.412L54.1223 342.541Z" fill="#D9D9D9"/>
<path d="M19.0723 273.636C40.4691 284.777 53.7285 281.583 76.1537 285.037V228.526L8.05656 231.996C3.79699 231.901 1.54723 235.466 0.545839 239.927C-0.455551 244.389 0.0451541 248.354 1.04656 251.329C2.04797 254.303 8.33917 267.931 19.0723 273.636Z" fill="#D9D9D9"/>
<path d="M383.592 282.56C365.543 237.91 358.557 239.778 342.033 209.118C325.509 178.458 346.539 155.084 346.539 155.084C355.052 137.238 383.592 164.083 383.592 164.083L454.193 265.209C483.339 304.52 491.148 327.586 500.259 369.31C506.212 396.574 513.465 407.48 520.788 426.318C529.329 448.289 526.296 447.137 536.31 492.247C546.324 537.358 548.02 543.014 549.829 584.451C566.344 579.387 574.962 580.598 588.885 591.887L1020 942.36L683.52 984C683.52 984 496.253 746.551 488.241 736.637C480.23 726.723 477.716 721.625 479.729 710.364H377.584V382.199L403.12 388.147C407.432 372.082 407.994 362.321 403.12 342.541C396.646 319.68 392.823 306.766 383.592 282.56Z" fill="#D9D9D9"/>
<path d="M76.1537 458.043V486.299C75.8474 489.372 77.9361 489.213 78.6572 491.256C80.5277 496.556 81.7596 499.139 79.6586 505.632C77.5577 512.124 76.915 513.908 71.6472 518.521C66.7853 523.326 63.32 523.892 56.1251 521.991L32.5915 515.05C25.8389 512.929 22.0762 511.389 15.5672 505.632C11.9049 500.581 10.1973 497.372 12.0622 486.299C13.6767 479.875 15.524 476.163 20.5744 469.444C25.4707 464.369 29.1318 461.919 42.6058 460.522L76.1537 458.043Z" fill="#D9D9D9"/>
<path d="M62.6344 561.152L76.1537 560.161V587.921C76.4816 594.855 78.5241 598.173 83.1637 603.784C85.4433 609.829 84.3529 613.434 79.1579 620.142C74.9575 624.46 71.6762 625.745 62.6344 624.108L33.0922 618.16C27.5662 617.62 25.5534 615.901 25.0808 608.741V595.357C25.292 588.866 26.3564 585.41 29.5872 579.494C37.3479 567.215 44.5684 563.229 62.6344 561.152Z" fill="#D9D9D9"/>
</svg>
