<svg width="28" height="28" viewBox="0 0 28 28" fill="none" xmlns="http://www.w3.org/2000/svg">
<rect width="28" height="28" rx="3.65217" fill="#262626"/>
<path fill-rule="evenodd" clip-rule="evenodd" d="M6.23926 9.47285C6.23926 9.11567 6.52881 8.82611 6.886 8.82611H21.1143C21.4714 8.82611 21.761 9.11567 21.761 9.47285C21.761 9.83003 21.4714 10.1196 21.1143 10.1196H6.886C6.52881 10.1196 6.23926 9.83003 6.23926 9.47285ZM6.23926 14C6.23926 13.6428 6.52881 13.3533 6.886 13.3533H21.1143C21.4714 13.3533 21.761 13.6428 21.761 14C21.761 14.3572 21.4714 14.6468 21.1143 14.6468H6.886C6.52881 14.6468 6.23926 14.3572 6.23926 14ZM13.3534 18.5272C13.3534 18.17 13.6429 17.8805 14.0001 17.8805H21.1143C21.4714 17.8805 21.761 18.17 21.761 18.5272C21.761 18.8844 21.4714 19.1739 21.1143 19.1739H14.0001C13.6429 19.1739 13.3534 18.8844 13.3534 18.5272Z" fill="#F5AF1B"/>
</svg>
