<svg width="536" height="560" viewBox="0 0 536 560" fill="none" xmlns="http://www.w3.org/2000/svg">
<rect x="1.82199" y="2.68087" width="120.251" height="120.251" rx="12.7539" stroke="url(#paint0_linear_573_707)" stroke-width="3.64398"/>
<path fill-rule="evenodd" clip-rule="evenodd" d="M50.8933 76.4992C50.8933 87.0979 58.3517 95.4722 74.0535 95.4722C90.4096 95.4722 97.3446 85.9203 97.5409 75.2561C97.5409 63.1938 87.4097 59.2859 79.5998 56.2734C74.7018 54.3841 70.7169 52.847 70.7169 49.8714C70.7169 47.5161 72.2871 46.0114 74.904 46.0114C78.2407 46.0114 79.68 48.8901 79.68 51.7033V53.666H97.1483V50.1985C97.1483 39.5998 89.69 31.2255 74.7732 31.2255C58.2208 31.2255 51.5475 40.4503 51.5475 51.1145C51.5475 63.4029 62.0879 67.5361 69.9701 70.627C74.6776 72.4729 78.437 73.9471 78.437 76.5646C78.437 79.0507 76.8668 80.49 73.7264 80.49C70.2589 80.49 68.4924 78.1348 68.4924 74.6673V73.2934H50.8933V76.4992ZM48.2763 33.1231H30.6117V46.7313H48.2763V33.1231ZM48.2765 61.1896C48.2765 67.0778 46.3138 70.349 42.0612 71.5266C46.5755 73.3585 48.2765 76.5643 48.2765 83.4993V93.6401L30.8082 93.5092V80.2281C30.8082 78.0642 28.8399 77.4659 26.7898 76.8427C26.3606 76.7123 25.9279 76.5807 25.5088 76.4335V67.0124C25.6928 66.951 25.8805 66.8896 26.07 66.8277C28.3062 66.0966 30.8082 65.2786 30.8082 63.3486V49.3478H48.2765V61.1896Z" fill="url(#paint1_linear_573_707)"/>
<rect x="138.717" y="2.68087" width="120.251" height="120.251" rx="12.7539" stroke="url(#paint2_linear_573_707)" stroke-width="3.64398"/>
<path fill-rule="evenodd" clip-rule="evenodd" d="M170.956 24.7823V32.57H163.148V34.7013H170.956V42.4889H173.087V34.7013H180.875V32.57H173.087V24.7823H170.956ZM196.123 99.9121L220.059 34.8037H233.196L209.239 99.9121H196.123ZM197.371 87.0827C197.371 88.5992 196.141 89.8289 194.624 89.8289C193.087 89.8289 191.878 88.5992 191.878 87.0827C191.878 85.5662 193.108 84.3366 194.624 84.3366C196.141 84.3366 197.371 85.5662 197.371 87.0827ZM185.856 60.2769C190.836 60.2769 194.873 56.2397 194.873 51.2597C194.873 46.2798 190.836 42.2425 185.856 42.2425C180.876 42.2425 176.839 46.2798 176.839 51.2597C176.839 56.2397 180.876 60.2769 185.856 60.2769ZM184.337 73.9264C184.337 73.578 184.624 73.2911 184.972 73.2911H190.854C191.202 73.2911 191.489 73.578 191.489 73.9264V79.8081C191.489 80.1564 191.202 80.4434 190.854 80.4434H184.972C184.624 80.4434 184.337 80.1564 184.337 79.8081V73.9264ZM198.541 66.2209L202.25 69.9302L200.754 71.4058L197.045 67.7169L193.356 71.4058L191.86 69.9302L195.569 66.2209L191.86 62.532L193.356 61.036L197.045 64.7248L200.754 61.036L202.25 62.532L198.541 66.2209Z" fill="url(#paint3_linear_573_707)"/>
<rect x="275.612" y="2.68087" width="120.251" height="120.251" rx="12.7539" stroke="url(#paint4_linear_573_707)" stroke-width="3.64398"/>
<path fill-rule="evenodd" clip-rule="evenodd" d="M330.283 98.92L319.758 88.4701L335.442 88.3383L351.145 88.2253L340.733 98.8446C337.833 101.782 333.183 101.782 330.283 98.92ZM340.319 26.9195L350.844 37.3693L335.178 37.4447L319.475 37.5576L329.869 26.9948C332.731 24.0575 337.419 24.0575 340.319 26.9195ZM300.719 90.6163L300.644 75.7418L311.79 86.813L322.955 97.903L308.156 97.9783C304.089 98.016 300.757 94.721 300.719 90.6163ZM369.914 35.185L369.989 50.0596L358.843 38.9884L347.64 27.8984L362.477 27.823C366.544 27.7854 369.876 31.0804 369.914 35.185ZM370.237 90.2024C370.275 94.307 366.98 97.6397 362.913 97.6773L348.057 97.7903L370.162 75.3278L370.237 90.2024ZM299.458 57.8931C296.596 60.8304 296.634 65.481 299.533 68.3806L310.059 78.8305L309.87 47.2738L299.458 57.8931ZM371.085 57.4212L360.56 46.9713L360.748 78.528L371.16 67.9087C373.984 65.0091 373.984 60.3208 371.085 57.4212ZM300.398 35.5992C300.36 31.4946 303.655 28.1619 307.722 28.1243L322.559 28.0113L300.473 50.4738L300.398 35.5992Z" fill="url(#paint5_linear_573_707)"/>
<rect x="412.508" y="2.68087" width="120.251" height="120.251" rx="12.7539" stroke="url(#paint6_linear_573_707)" stroke-width="3.64398"/>
<path fill-rule="evenodd" clip-rule="evenodd" d="M490.205 21.218L460.683 34.7993L457.494 43.4669L448.176 45.0524L429.442 71.1156L456.032 89.1243L465.302 87.4065L471.283 94.4447L503.676 97.023L506.612 65.4558L500.508 58.5099L503.845 49.8862L490.205 21.218ZM458.469 44.6047L481.111 34.4702L471.585 59.7866L444.373 64.6226L458.469 44.6047ZM465.825 86.0025L445.696 72.0669L472.886 67.235L490.55 87.7194C490.573 87.7153 465.825 86.0025 465.825 86.0025ZM496.539 82.8154L478.874 62.331L488.399 37.0147L499.028 58.7494L496.539 82.8154Z" fill="url(#paint7_linear_573_707)"/>
<rect x="1.82199" y="147.576" width="120.251" height="120.251" rx="12.7539" stroke="url(#paint8_linear_573_707)" stroke-width="3.64398"/>
<path d="M95.6105 184.105V240.435H89.2939V183.92C89.4797 182.252 88.7366 180.584 87.0646 179.843L62.17 204.673L37.2754 179.843C35.7891 180.584 35.046 182.252 35.046 183.92V240.62H28.7295V183.92C28.7295 183.735 28.7295 183.735 28.7295 183.735C28.5437 178.361 33.0024 173.914 38.3901 173.729H39.6905L61.7984 196.149L84.2778 173.729H85.5783C91.1517 174.099 95.7962 178.732 95.6105 184.105Z" stroke="url(#paint9_linear_573_707)" stroke-width="7.77814"/>
<rect x="138.717" y="147.576" width="120.251" height="120.251" rx="12.7539" stroke="url(#paint10_linear_573_707)" stroke-width="3.64398"/>
<path d="M231.92 193.662L230.793 194.032C230.353 194.183 229.873 193.948 229.723 193.506L229.355 192.375C229.204 191.933 229.438 191.452 229.879 191.301L231.005 190.932C231.446 190.781 231.925 191.016 232.076 191.458L232.444 192.588C232.594 193.03 232.36 193.511 231.92 193.662ZM234.145 198.284L233.905 197.378C233.832 197.104 233.553 196.936 233.28 197.009L232.377 197.249C232.104 197.322 231.936 197.602 232.009 197.876L232.249 198.782C232.321 199.056 232.6 199.224 232.873 199.152L233.777 198.917C234.05 198.844 234.217 198.564 234.145 198.29V198.284ZM229.99 195.559C229.879 195.201 229.5 195 229.143 195.112L228.128 195.414C227.771 195.526 227.57 195.906 227.682 196.264L227.983 197.283C228.094 197.641 228.474 197.842 228.83 197.73L229.845 197.423C230.202 197.311 230.403 196.93 230.291 196.572L229.99 195.554V195.559ZM226.438 194.804L226.07 193.673C225.92 193.231 225.44 192.996 225 193.148L223.873 193.517C223.433 193.668 223.199 194.149 223.349 194.591L223.717 195.721C223.868 196.164 224.347 196.399 224.788 196.248L225.914 195.878C226.355 195.727 226.589 195.246 226.438 194.804ZM220.778 190.988L219.54 191.424C219.016 191.614 218.743 192.196 218.938 192.722L219.373 193.964C219.563 194.49 220.143 194.765 220.667 194.574L221.905 194.132C222.429 193.942 222.702 193.36 222.507 192.834L222.072 191.592C221.883 191.066 221.302 190.797 220.778 190.988ZM227.899 199.594C227.827 199.32 227.548 199.152 227.275 199.224L226.371 199.465C226.098 199.538 225.931 199.818 226.003 200.092L226.238 200.998C226.31 201.272 226.589 201.435 226.862 201.368L227.765 201.127C228.039 201.054 228.206 200.774 228.133 200.5L227.894 199.594H227.899ZM223.979 197.781C223.868 197.423 223.488 197.221 223.132 197.333L222.117 197.635C221.76 197.747 221.559 198.128 221.671 198.486L221.972 199.504C222.083 199.862 222.462 200.064 222.819 199.952L223.834 199.65C224.191 199.538 224.392 199.157 224.28 198.799L223.974 197.781H223.979ZM220.433 197.025L220.065 195.895C219.914 195.453 219.434 195.218 218.994 195.369L217.868 195.738C217.427 195.889 217.193 196.371 217.343 196.813L217.711 197.943C217.862 198.385 218.342 198.62 218.782 198.469L219.909 198.1C220.349 197.949 220.583 197.467 220.433 197.025ZM214.773 193.209L213.535 193.645C213.011 193.836 212.737 194.418 212.933 194.944L213.368 196.186C213.557 196.712 214.137 196.986 214.661 196.79L215.899 196.354C216.423 196.164 216.697 195.582 216.501 195.056L216.066 193.813C215.877 193.287 215.297 193.019 214.773 193.209ZM221.894 201.815C221.821 201.541 221.542 201.373 221.269 201.446L220.366 201.686C220.092 201.759 219.925 202.039 219.998 202.313L220.232 203.22C220.304 203.494 220.583 203.662 220.856 203.589L221.76 203.348C222.033 203.276 222.2 202.996 222.128 202.722L221.888 201.815H221.894ZM217.974 200.002C217.862 199.644 217.483 199.443 217.126 199.554L216.111 199.862C215.754 199.974 215.553 200.355 215.665 200.713L215.966 201.731C216.078 202.089 216.457 202.291 216.814 202.179L217.829 201.877C218.185 201.765 218.386 201.384 218.275 201.026L217.968 200.008L217.974 200.002ZM214.427 199.247L214.059 198.116C213.909 197.674 213.429 197.439 212.988 197.59L211.862 197.96C211.421 198.111 211.187 198.592 211.338 199.034L211.706 200.164C211.856 200.607 212.336 200.842 212.776 200.69L213.903 200.321C214.343 200.17 214.578 199.689 214.427 199.247ZM210.496 197.277L210.061 196.035C209.871 195.509 209.291 195.235 208.767 195.431L207.529 195.867C207.005 196.057 206.732 196.639 206.927 197.165L207.362 198.407C207.552 198.933 208.131 199.208 208.656 199.012L209.894 198.575C210.418 198.385 210.691 197.803 210.496 197.277ZM215.888 204.031C215.816 203.757 215.537 203.595 215.263 203.662L214.36 203.902C214.087 203.975 213.92 204.255 213.992 204.529L214.226 205.436C214.299 205.71 214.578 205.878 214.851 205.805L215.754 205.564C216.027 205.492 216.195 205.212 216.122 204.938L215.882 204.031H215.888ZM211.968 202.218C211.856 201.86 211.477 201.658 211.12 201.77L210.105 202.078C209.749 202.19 209.548 202.571 209.659 202.929L209.961 203.947C210.072 204.305 210.451 204.507 210.808 204.395L211.823 204.093C212.18 203.981 212.381 203.6 212.269 203.242L211.962 202.224L211.968 202.218ZM226.778 188.788L225.54 189.23C225.016 189.421 224.743 190.003 224.938 190.529L225.373 191.771C225.563 192.297 226.143 192.565 226.667 192.375L227.905 191.939C228.429 191.749 228.702 191.167 228.507 190.641L228.072 189.398C227.883 188.872 227.303 188.604 226.778 188.794V188.788ZM206.492 194.826C206.654 195.251 206.565 195.71 206.302 196.04C206.113 196.275 205.745 196.248 205.566 196.007C205.46 195.861 205.076 195.408 205.076 195.408C201.897 192.067 197.185 190.176 190.488 190.176C179.453 190.176 170.893 197.344 163.477 206.991L163.438 207.042C163.393 207.097 163.326 207.131 163.26 207.131H163.053C162.953 207.131 162.875 207.047 162.875 206.946L162.886 206.51C163.51 186.444 180.1 170.574 200.141 170.972C210.992 171.184 220.644 176.12 227.191 183.786C227.905 184.625 228.462 185.347 229.07 186.265C229.171 186.416 229.299 186.623 229.416 186.83L229.567 187.121C229.684 187.345 229.578 187.625 229.344 187.714L228.379 188.072C227.743 188.313 227.029 187.994 226.784 187.356C226.784 187.356 226.561 186.712 226.383 186.175C226.265 185.811 225.858 185.621 225.507 185.767C225.173 185.907 224.777 186.063 224.448 186.192C224.102 186.326 223.929 186.712 224.068 187.059C224.269 187.557 224.503 188.167 224.503 188.167C224.743 188.805 224.425 189.521 223.79 189.768L222.373 190.299C221.737 190.54 221.024 190.221 220.778 189.583C220.778 189.583 220.555 188.945 220.377 188.402C220.26 188.039 219.853 187.848 219.501 187.994C219.167 188.134 218.771 188.29 218.442 188.419C218.096 188.548 217.923 188.939 218.063 189.286C218.264 189.784 218.498 190.394 218.498 190.394C218.738 191.032 218.42 191.749 217.784 191.989L216.368 192.521C215.732 192.761 215.018 192.442 214.773 191.804C214.773 191.804 214.55 191.167 214.371 190.624C214.254 190.254 213.847 190.07 213.49 190.215C213.161 190.355 212.765 190.512 212.436 190.635C212.091 190.764 211.918 191.161 212.057 191.502C212.258 192 212.492 192.61 212.492 192.61C212.732 193.248 212.414 193.964 211.778 194.205L210.362 194.737C209.726 194.977 209.013 194.658 208.767 194.02C208.767 194.02 208.544 193.377 208.366 192.84C208.249 192.47 207.836 192.286 207.485 192.437C207.156 192.577 206.76 192.733 206.431 192.856C206.085 192.985 205.912 193.377 206.052 193.724C206.252 194.222 206.487 194.832 206.487 194.832L206.492 194.826ZM220.009 185.09C220.143 185.437 220.299 185.867 220.399 186.186C220.505 186.511 220.856 186.673 221.174 186.55C221.481 186.427 221.855 186.282 222.161 186.17C222.474 186.052 222.63 185.7 222.496 185.392C222.368 185.101 222.2 184.676 222.072 184.317C221.949 183.987 221.587 183.819 221.258 183.948C220.985 184.055 220.667 184.172 220.388 184.273C220.059 184.396 219.886 184.765 220.014 185.095L220.009 185.09ZM214.003 187.306C214.137 187.653 214.293 188.083 214.394 188.402C214.5 188.727 214.851 188.895 215.169 188.766C215.475 188.643 215.849 188.497 216.156 188.386C216.468 188.268 216.624 187.916 216.49 187.608C216.362 187.317 216.195 186.891 216.066 186.533C215.944 186.203 215.581 186.035 215.252 186.164C214.979 186.27 214.661 186.388 214.382 186.489C214.053 186.606 213.881 186.981 214.009 187.311L214.003 187.306ZM207.998 189.521C208.131 189.868 208.288 190.299 208.388 190.618C208.494 190.943 208.845 191.111 209.163 190.982C209.47 190.859 209.843 190.713 210.15 190.601C210.462 190.484 210.619 190.131 210.485 189.824C210.356 189.533 210.189 189.107 210.061 188.749C209.938 188.419 209.576 188.251 209.247 188.38C208.974 188.486 208.656 188.604 208.377 188.705C208.048 188.822 207.875 189.191 208.003 189.527L207.998 189.521ZM166.193 221.562L167.319 221.193C167.76 221.042 168.239 221.277 168.39 221.719L168.758 222.849C168.908 223.291 168.674 223.773 168.234 223.924L167.107 224.293C166.667 224.444 166.187 224.209 166.036 223.767L165.668 222.637C165.518 222.195 165.752 221.713 166.193 221.562ZM163.968 216.94L164.207 217.847C164.28 218.121 164.559 218.289 164.832 218.216L165.735 217.975C166.009 217.903 166.176 217.623 166.103 217.349L165.864 216.442C165.791 216.168 165.512 216 165.239 216.073L164.336 216.308C164.062 216.381 163.895 216.661 163.968 216.935V216.94ZM168.122 219.665C168.234 220.023 168.613 220.225 168.97 220.113L169.984 219.811C170.341 219.699 170.542 219.318 170.431 218.96L170.129 217.942C170.018 217.584 169.639 217.382 169.282 217.494L168.267 217.802C167.91 217.914 167.709 218.294 167.821 218.653L168.122 219.671V219.665ZM171.674 220.421L172.042 221.551C172.193 221.993 172.672 222.228 173.113 222.077L174.239 221.708C174.68 221.557 174.914 221.075 174.763 220.633L174.395 219.503C174.245 219.061 173.765 218.826 173.325 218.977L172.198 219.346C171.758 219.497 171.523 219.979 171.674 220.421ZM177.334 224.237L178.572 223.801C179.096 223.61 179.369 223.028 179.174 222.502L178.739 221.26C178.55 220.734 177.97 220.46 177.445 220.65L176.208 221.092C175.683 221.283 175.41 221.864 175.605 222.39L176.04 223.633C176.23 224.159 176.81 224.427 177.334 224.237ZM170.213 215.631C170.286 215.905 170.564 216.073 170.838 216L171.741 215.76C172.014 215.687 172.181 215.407 172.109 215.133L171.875 214.226C171.802 213.952 171.523 213.79 171.25 213.857L170.347 214.098C170.074 214.17 169.906 214.45 169.979 214.724L170.219 215.631H170.213ZM174.133 217.444C174.245 217.802 174.624 218.003 174.981 217.891L175.996 217.589C176.352 217.478 176.553 217.097 176.442 216.739L176.141 215.72C176.029 215.362 175.65 215.161 175.293 215.273L174.278 215.575C173.921 215.687 173.721 216.067 173.832 216.425L174.139 217.444H174.133ZM177.68 218.199L178.048 219.33C178.198 219.772 178.678 220.007 179.118 219.856L180.245 219.486C180.685 219.335 180.919 218.854 180.769 218.412L180.401 217.282C180.25 216.84 179.771 216.605 179.33 216.756L178.204 217.125C177.763 217.276 177.529 217.757 177.68 218.199ZM183.339 222.016L184.578 221.579C185.102 221.389 185.375 220.807 185.18 220.281L184.745 219.039C184.555 218.513 183.975 218.239 183.451 218.434L182.213 218.871C181.689 219.061 181.416 219.643 181.611 220.169L182.046 221.411C182.235 221.937 182.815 222.206 183.339 222.016ZM176.219 213.409C176.291 213.684 176.57 213.851 176.843 213.779L177.747 213.538C178.02 213.465 178.187 213.186 178.115 212.911L177.88 212.005C177.808 211.731 177.529 211.563 177.256 211.636L176.352 211.876C176.079 211.949 175.912 212.229 175.984 212.503L176.224 213.409H176.219ZM180.139 215.222C180.25 215.58 180.63 215.782 180.986 215.67L182.001 215.362C182.358 215.25 182.559 214.87 182.447 214.512L182.146 213.493C182.035 213.135 181.656 212.934 181.299 213.046L180.284 213.348C179.927 213.46 179.726 213.84 179.838 214.198L180.144 215.217L180.139 215.222ZM183.685 215.978L184.053 217.108C184.204 217.55 184.683 217.785 185.124 217.634L186.25 217.265C186.691 217.114 186.925 216.633 186.775 216.19L186.406 215.06C186.256 214.618 185.776 214.383 185.336 214.534L184.209 214.903C183.769 215.055 183.535 215.536 183.685 215.978ZM187.616 217.947L188.051 219.19C188.241 219.716 188.821 219.99 189.345 219.794L190.583 219.358C191.107 219.167 191.381 218.585 191.185 218.059L190.75 216.817C190.561 216.291 189.981 216.017 189.457 216.213L188.219 216.649C187.695 216.84 187.421 217.422 187.616 217.947ZM182.224 211.194C182.297 211.468 182.576 211.63 182.849 211.563L183.752 211.322C184.025 211.249 184.193 210.97 184.12 210.696L183.886 209.789C183.814 209.515 183.535 209.347 183.262 209.42L182.358 209.66C182.085 209.733 181.918 210.013 181.99 210.287L182.23 211.194H182.224ZM186.144 213.007C186.256 213.365 186.635 213.566 186.992 213.454L188.007 213.146C188.364 213.035 188.564 212.654 188.453 212.296L188.152 211.277C188.04 210.919 187.661 210.718 187.304 210.83L186.289 211.132C185.932 211.244 185.732 211.624 185.843 211.983L186.15 213.001L186.144 213.007ZM171.334 226.436L172.572 225.994C173.096 225.804 173.369 225.222 173.174 224.696L172.739 223.454C172.55 222.928 171.97 222.659 171.445 222.849L170.208 223.286C169.683 223.476 169.41 224.058 169.605 224.584L170.04 225.826C170.23 226.352 170.81 226.621 171.334 226.431V226.436ZM191.62 220.398C191.459 219.973 191.548 219.514 191.81 219.184C191.999 218.949 192.367 218.977 192.546 219.218C192.652 219.363 193.037 219.817 193.037 219.817C196.215 223.157 200.927 225.048 207.624 225.048C218.659 225.048 227.219 217.88 234.635 208.233L234.674 208.183C234.719 208.127 234.786 208.093 234.853 208.093H235.059C235.159 208.093 235.238 208.177 235.238 208.278L235.226 208.715C234.602 228.764 218.007 244.633 197.966 244.236C187.115 244.023 177.462 239.088 170.916 231.422C170.202 230.583 169.644 229.861 169.036 228.943C168.936 228.792 168.808 228.585 168.691 228.378L168.54 228.087C168.423 227.863 168.529 227.583 168.763 227.494L169.728 227.136C170.364 226.895 171.077 227.214 171.323 227.852C171.323 227.852 171.546 228.495 171.724 229.033C171.841 229.396 172.248 229.587 172.6 229.441C172.934 229.301 173.33 229.144 173.659 229.016C174.005 228.881 174.178 228.495 174.038 228.148C173.838 227.65 173.603 227.04 173.603 227.04C173.364 226.403 173.681 225.686 174.317 225.44L175.734 224.909C176.369 224.668 177.083 224.987 177.328 225.625C177.328 225.625 177.551 226.263 177.73 226.805C177.847 227.169 178.254 227.359 178.605 227.214C178.94 227.074 179.336 226.917 179.665 226.789C180.011 226.66 180.183 226.268 180.044 225.921C179.843 225.423 179.609 224.813 179.609 224.813C179.369 224.175 179.687 223.459 180.323 223.219L181.739 222.687C182.375 222.446 183.089 222.765 183.334 223.403C183.334 223.403 183.557 224.041 183.735 224.584C183.853 224.953 184.26 225.138 184.617 224.992C184.945 224.853 185.341 224.696 185.67 224.573C186.016 224.444 186.189 224.047 186.05 223.705C185.849 223.207 185.615 222.597 185.615 222.597C185.375 221.96 185.693 221.243 186.328 221.003L187.745 220.471C188.38 220.231 189.094 220.55 189.34 221.187C189.34 221.187 189.563 221.831 189.741 222.368C189.858 222.737 190.271 222.922 190.622 222.771C190.951 222.631 191.347 222.474 191.676 222.351C192.022 222.223 192.195 221.831 192.055 221.484C191.854 220.986 191.62 220.376 191.62 220.376V220.398ZM178.103 230.135C177.97 229.788 177.814 229.357 177.713 229.038C177.607 228.714 177.256 228.551 176.938 228.674C176.631 228.798 176.258 228.943 175.951 229.055C175.639 229.172 175.483 229.525 175.617 229.833C175.745 230.124 175.912 230.549 176.04 230.907C176.163 231.237 176.525 231.405 176.854 231.276C177.128 231.17 177.445 231.053 177.724 230.952C178.053 230.829 178.226 230.459 178.098 230.129L178.103 230.135ZM184.109 227.919C183.975 227.572 183.819 227.141 183.719 226.822C183.613 226.498 183.262 226.33 182.944 226.459C182.637 226.582 182.263 226.727 181.957 226.839C181.644 226.956 181.488 227.309 181.622 227.617C181.75 227.908 181.918 228.333 182.046 228.691C182.169 229.021 182.531 229.189 182.86 229.061C183.133 228.954 183.451 228.837 183.73 228.736C184.059 228.618 184.232 228.244 184.103 227.913L184.109 227.919ZM190.115 225.703C189.981 225.356 189.825 224.925 189.724 224.606C189.618 224.282 189.267 224.114 188.949 224.243C188.643 224.366 188.269 224.511 187.962 224.623C187.65 224.741 187.494 225.093 187.628 225.401C187.756 225.692 187.923 226.117 188.051 226.475C188.174 226.805 188.537 226.973 188.866 226.845C189.139 226.738 189.457 226.621 189.736 226.52C190.065 226.403 190.237 226.033 190.109 225.698L190.115 225.703Z" fill="url(#paint11_linear_573_707)"/>
<rect x="275.612" y="147.576" width="120.251" height="120.251" rx="12.7539" stroke="url(#paint12_linear_573_707)" stroke-width="3.64398"/>
<path fill-rule="evenodd" clip-rule="evenodd" d="M353.724 181.34C356.476 177.929 361.457 177.406 364.868 180.158C368.279 182.91 368.802 187.91 366.05 191.282L343.762 218.822V218.841V230.159C343.762 234.539 340.216 238.086 335.836 238.086C331.456 238.086 327.909 234.539 327.909 230.159V218.86V218.841L305.621 191.301C302.869 187.91 303.393 182.91 306.804 180.158C310.195 177.406 315.195 177.929 317.947 181.34L335.836 203.453L353.724 181.34ZM352.055 210.543L367.909 197.999V230.16C367.909 234.54 364.362 238.086 359.982 238.086C355.602 238.086 352.055 234.54 352.055 230.16V210.543ZM319.614 210.649L303.761 198.105V230.159C303.761 234.539 307.308 238.085 311.688 238.085C316.068 238.085 319.614 234.539 319.614 230.159V210.649Z" fill="url(#paint13_linear_573_707)"/>
<rect x="412.508" y="147.576" width="120.251" height="120.251" rx="12.7539" stroke="url(#paint14_linear_573_707)" stroke-width="3.64398"/>
<path fill-rule="evenodd" clip-rule="evenodd" d="M471.958 168.672C476.944 168.691 480.968 172.715 480.968 177.701C480.948 182.667 476.924 186.711 471.958 186.692C466.992 186.692 462.948 182.648 462.948 177.682C462.948 172.715 466.972 168.672 471.958 168.672ZM458.099 177.701C458.099 180.194 458.767 182.648 460.062 184.787L460.052 184.791L460.064 184.788C450.426 189.323 443.732 199.118 443.732 210.484C443.732 211.347 443.771 212.211 443.85 213.075H443.732C440.631 213.075 437.627 214.115 435.193 216.039L435.193 216.016L435.191 216.038L435.172 216.058C434.897 214.232 434.76 212.367 434.76 210.483C434.76 194.759 444.476 181.313 458.237 175.817C458.158 176.425 458.099 177.053 458.099 177.701ZM509.393 226.992C509.393 222.006 505.35 217.982 500.383 217.982C495.397 217.982 491.373 222.026 491.373 226.992C491.373 231.978 495.417 236.002 500.383 236.002C505.369 236.002 509.393 231.978 509.393 226.992ZM452.762 226.914C452.762 221.928 448.738 217.884 443.752 217.884C438.766 217.884 434.742 221.928 434.742 226.894C434.742 231.86 438.785 235.904 443.752 235.904C448.718 235.924 452.742 231.9 452.762 226.914ZM500.325 213.016C502.739 212.996 505.193 213.585 507.43 214.881C507.98 215.214 508.49 215.568 509.001 215.96C511.18 201.297 504.466 186.123 490.883 178.212C489.273 177.27 487.604 176.465 485.877 175.759V175.778C486.363 176.098 486.839 176.429 487.305 176.769C486.796 176.424 486.275 176.087 485.742 175.759C486.193 178.821 485.585 181.962 484.034 184.631L483.975 184.729C484.74 185.083 485.526 185.475 486.272 185.927C496.106 191.62 501.249 202.318 500.326 212.937C500.343 212.897 500.359 212.856 500.375 212.815C500.358 212.882 500.342 212.949 500.325 213.016ZM455.745 233.665C454.528 235.844 452.741 237.65 450.563 238.886C450.013 239.2 449.424 239.455 448.855 239.691C460.456 248.917 476.945 250.684 490.588 242.891C492.197 241.968 493.748 240.928 495.201 239.769L495.181 239.75C495.18 239.75 495.18 239.75 495.179 239.75C492.314 238.592 489.9 236.492 488.369 233.803L488.329 233.705C487.623 234.195 486.896 234.666 486.131 235.098C476.277 240.732 464.44 239.79 455.724 233.646C455.731 233.652 455.738 233.659 455.745 233.665Z" fill="url(#paint15_linear_573_707)"/>
<rect x="1.82199" y="292.471" width="120.251" height="120.251" rx="12.7539" stroke="url(#paint16_linear_573_707)" stroke-width="3.64398"/>
<path d="M65.4366 320.015C70.5624 313.235 77.698 313.213 77.698 313.213C77.698 313.213 78.7593 319.586 73.656 325.711C68.214 332.265 62.0269 331.18 62.0269 331.18C62.0269 331.18 60.8752 326.027 65.4366 320.015ZM62.6817 335.632C65.3237 335.632 70.2237 331.993 76.5915 331.993C87.5659 331.993 91.8788 339.813 91.8788 339.813C91.8788 339.813 83.4336 344.13 83.4336 354.616C83.4336 366.436 93.9563 370.526 93.9563 370.526C93.9563 370.526 86.5949 391.25 76.6593 391.25C72.0979 391.25 68.5527 388.177 63.743 388.177C58.8429 388.177 53.988 391.363 50.8041 391.363C41.7266 391.363 30.2781 371.701 30.2781 355.904C30.2781 340.355 39.9879 332.197 49.088 332.197C55.0268 332.219 59.6107 335.632 62.6817 335.632Z" fill="url(#paint17_linear_573_707)"/>
<rect x="138.717" y="292.471" width="120.251" height="120.251" rx="12.7539" stroke="url(#paint18_linear_573_707)" stroke-width="3.64398"/>
<path fill-rule="evenodd" clip-rule="evenodd" d="M184.316 350.02H178.61L178.61 350.02H178.136L170.687 337.227L163.237 350.02H158.709V317.324H163.6V339.423L176.393 317.324H182.099L173.495 332.223L181.179 345.586L197.811 316.871L217.012 350.133H211.306L197.811 326.744L184.316 350.02ZM235.264 317.46L226.773 332.223L218.169 317.46H212.463L224.215 337.816V350.156H229.105V337.816L240.97 317.46H235.264ZM158.709 354.911H181.51L165.456 382.716H180.355V387.607H156.965L172.905 359.915H158.709V354.911ZM207.82 354.911H187.804V359.801H207.82V354.911ZM187.804 382.716H207.82V387.607H187.804V382.716ZM207.82 368.882H187.804V373.773H207.82V368.882ZM232.819 354.911H237.71V387.607H232.932L219.912 365.145V387.607H215.022V354.911H219.799L232.819 377.372V354.911Z" fill="url(#paint19_linear_573_707)"/>
<rect x="275.612" y="292.471" width="120.251" height="120.251" rx="12.7539" stroke="url(#paint20_linear_573_707)" stroke-width="3.64398"/>
<path fill-rule="evenodd" clip-rule="evenodd" d="M379.408 310.7C379.408 310.7 375.979 326.282 360.014 341.453C355.204 346.084 349.985 350.203 344.382 353.862L344.356 354.067L344.177 363.149C345.687 362.1 347.375 361.205 349.09 360.514C349.09 360.514 347.503 364.787 341.081 370.953C334.685 377.119 331.155 377.937 331.155 377.937L330.771 377.605C330.771 377.605 331.59 374.867 336.272 369.955L334.122 359.951L334.071 359.772L333.483 360.028C330.975 361.231 329.44 361.768 329.261 361.819L328.903 361.384C333.329 357.93 337.244 353.837 340.416 349.282L341.03 348.847C345.712 345.521 350.19 341.812 354.334 337.872C366.052 326.742 370.709 316.073 370.709 316.073C370.709 316.073 360.91 319.041 348.143 331.194C338.344 340.43 330.157 354.041 330.157 354.041C330.319 353.912 330.496 353.771 330.684 353.62C333.731 351.189 339.91 346.258 340.416 345.752C340.416 345.752 335.223 354.169 327.598 359.67L326.012 357.981C326.142 357.708 326.271 357.435 326.4 357.161C327.009 355.867 327.622 354.566 328.34 353.299L328.161 353.274L318.311 350.741C313.245 355.167 310.456 355.858 310.456 355.858L310.073 355.525C310.073 355.525 311.25 352.071 317.595 346.008C323.94 339.944 328.391 338.537 328.391 338.537C327.547 340.251 326.549 341.812 325.424 343.296L334.481 343.577H334.557C338.497 338.179 342.924 333.215 347.734 328.584C363.699 313.31 379.408 310.7 379.408 310.7ZM318.669 376.837L318.593 376.888C323.352 380.394 328.903 382.389 334.839 382.747C334.734 382.762 334.63 382.777 334.527 382.792C334.076 382.858 333.639 382.922 333.202 382.901C327.215 383.361 321.177 382.057 315.957 379.114C312.059 382.067 306.719 385.052 301.938 387.726C297.35 390.29 293.276 392.568 291.484 394.253C293.212 392.576 295.646 388.702 298.396 384.324C301.091 380.033 304.091 375.258 307.028 371.592C303.088 366.731 300.734 360.821 300.248 354.553C298.918 337.513 311.685 322.7 328.699 321.574C329.159 321.472 329.722 321.446 330.157 321.446C326.831 322.137 323.582 323.442 320.588 325.284C305.954 334.162 301.272 353.299 310.252 367.934C316.981 361.461 322.533 360.233 324.733 362.587C326.933 364.915 325.398 370.364 318.669 376.837ZM291.396 394.337C291.425 394.309 291.454 394.281 291.484 394.253C291.455 394.282 291.425 394.31 291.396 394.337ZM309.305 374.151C307.259 376.684 305.109 379.984 303.139 383.131C306.491 381.263 309.766 379.345 312.964 377.298C313.848 376.686 314.691 375.954 315.53 375.226C315.638 375.132 315.747 375.038 315.855 374.944V374.867C320.972 369.929 321.714 366.578 321.381 365.964C320.767 365.503 317.339 366.092 312.248 370.927L312.171 370.978C311.204 371.877 310.402 372.837 309.58 373.822C309.489 373.931 309.397 374.041 309.305 374.151Z" fill="url(#paint21_linear_573_707)"/>
<rect x="412.508" y="292.471" width="120.251" height="120.251" rx="12.7539" stroke="url(#paint22_linear_573_707)" stroke-width="3.64398"/>
<path d="M478.236 332.2H443.37C442.978 332.2 442.663 332.507 442.663 332.885V373.969C442.663 374.344 442.978 374.65 443.37 374.65H452.526C452.915 374.65 453.238 374.344 453.238 373.969V341.724C453.238 341.352 453.553 341.043 453.945 341.043H473.667C479.213 341.043 480.787 345.222 480.787 347.917V373.969C480.787 374.344 481.106 374.65 481.498 374.65H490.648C491.037 374.65 491.357 374.344 491.357 373.969V344.824C491.357 342.42 491.063 338.963 487.91 335.92C484.611 332.744 481.601 332.2 478.236 332.2Z" fill="url(#paint23_linear_573_707)"/>
<path d="M509.49 332.2H500.337C499.945 332.2 499.628 332.507 499.628 332.885V373.969C499.628 374.344 499.945 374.65 500.337 374.65H509.49C509.879 374.65 510.201 374.344 510.201 373.969V332.885C510.201 332.507 509.879 332.2 509.49 332.2Z" fill="url(#paint24_linear_573_707)"/>
<path d="M462.211 348.564H471.823C472.212 348.564 472.53 348.871 472.53 349.247V373.972C472.53 374.346 472.212 374.653 471.823 374.653H462.211C461.819 374.653 461.498 374.346 461.498 373.972V349.247C461.498 348.871 461.819 348.564 462.211 348.564Z" fill="url(#paint25_linear_573_707)"/>
<rect x="1.82199" y="437.127" width="120.251" height="120.251" rx="12.7539" stroke="url(#paint26_linear_573_707)" stroke-width="3.64398"/>
<path d="M86.7691 529.203L94.5592 508.474H94.6884L94.5162 528.804C94.5162 529.371 95.0111 529.875 95.6137 529.875H100.821C101.403 529.875 101.919 529.392 101.919 528.804V500.661C101.919 500.094 101.424 499.59 100.821 499.59H91.8477C91.3958 499.59 90.987 499.863 90.8578 500.304L84.3374 518.996H84.1437L77.3435 500.304C77.2143 499.905 76.8055 499.59 76.3536 499.59H67.5305C66.9494 499.59 66.433 500.073 66.433 500.661V522.755H41.2979C34.0888 522.755 28.214 517.001 28.214 509.986C28.214 502.971 34.1104 497.217 41.2979 497.217C41.4271 497.217 45.688 497.049 45.688 497.049C46.1829 497.007 46.5487 496.566 46.4196 496.083L45.5158 492.765C45.1069 491.358 44.9348 489.845 44.9348 488.396C44.9348 479.156 52.6388 471.637 62.1075 471.637C66.2393 471.637 70.2204 473.086 73.3408 475.711C76.4181 478.315 78.4625 481.907 79.0435 485.834L79.4954 488.711C79.5385 489.152 79.9904 489.425 80.3993 489.32L83.0677 488.753C83.8424 488.627 84.6171 488.522 85.3703 488.585C88.7704 488.753 92.3427 490.748 92.9883 494.424C93.0313 494.781 93.3972 495.033 93.763 495.033H99.7024C100.154 495.033 100.52 494.634 100.477 494.193C99.7885 485.792 92.687 481.823 85.9729 481.508C85.6501 481.508 85.3918 481.277 85.2412 480.983C83.8855 476.866 81.3892 473.212 77.9891 470.335C73.556 466.575 67.8963 464.538 62.0429 464.538C48.5931 464.538 37.6826 475.186 37.6826 488.312C37.6826 488.753 37.6826 489.236 37.7257 489.677C37.7257 490.076 37.489 490.391 37.1446 490.475C27.8696 492.387 21.0264 500.514 21.0264 509.881C21.0264 520.802 30.1292 529.686 41.3195 529.686H67.2722C67.3583 529.686 67.4444 529.728 67.552 529.728H72.437C73.018 529.728 73.5345 529.245 73.5345 528.657L73.3623 508.327H73.4914L81.0449 529.056C81.174 529.455 81.5828 529.77 82.0348 529.77H85.8007C86.2311 529.917 86.64 529.644 86.7691 529.203Z" fill="url(#paint27_linear_573_707)"/>
<rect x="139.067" y="437.127" width="120.251" height="120.251" rx="12.7539" stroke="url(#paint28_linear_573_707)" stroke-width="3.64398"/>
<path fill-rule="evenodd" clip-rule="evenodd" d="M223.336 511.502C223.336 511.502 214.272 504.505 208.994 496.935C201.833 485.785 191.645 490.326 188.207 495.973C185.647 500.246 182.017 503.344 180.061 505.013L180.061 505.013C179.422 505.558 178.962 505.951 178.776 506.182C178.661 506.325 178.327 506.574 177.853 506.927C175.208 508.896 168.175 514.134 170.101 522.652C172.352 532.677 180.31 532.472 180.31 532.472C180.31 532.472 186.162 533.045 192.954 531.531C199.767 530.017 205.598 531.9 205.598 531.9C205.598 531.9 221.454 537.219 225.791 526.989C230.149 516.821 223.336 511.502 223.336 511.502ZM232.215 491.656C232.215 489.406 230.333 482.572 223.356 482.572C216.339 482.572 215.439 488.997 215.439 493.559C215.439 497.896 215.807 503.952 224.482 503.768C232.508 503.579 232.302 495.315 232.227 492.282L232.227 492.281C232.22 492.036 232.215 491.826 232.215 491.656ZM208.994 483.698C214.866 484.475 218.61 478.215 219.367 473.489C220.144 468.762 216.359 463.279 212.206 462.318C208.053 461.356 202.856 468.026 202.386 472.343C201.833 477.642 203.143 482.941 208.994 483.698ZM190.131 482.961C194.509 482.961 198.048 477.908 198.048 471.688C198.048 465.469 194.509 460.436 190.131 460.436C185.752 460.436 182.213 465.469 182.213 471.688C182.213 477.908 185.752 482.961 190.131 482.961ZM175.4 498.838C183.285 497.126 182.262 487.745 182.032 485.627L182.029 485.6C181.64 482.409 177.876 476.823 172.781 477.273C166.337 477.846 165.416 487.094 165.416 487.094C164.536 491.39 167.462 500.536 175.4 498.838ZM191.46 522.652H187.307C187.307 522.652 184.422 522.509 183.543 519.174C183.093 517.701 183.604 516.003 183.85 515.328C184.054 514.653 185.036 513.118 187.021 512.525H191.46V522.652ZM191.542 501.743V508.474H186.039C186.039 508.474 180.556 508.924 178.632 515.144C178.002 519.021 179.066 521.401 179.393 522.133L179.393 522.133C179.416 522.185 179.436 522.228 179.451 522.263C179.676 522.795 181.456 525.823 185.916 526.724H196.227V501.825L191.542 501.743ZM198.724 522.202V509.087L203.552 509.026V520.811C203.838 522.079 205.414 522.304 205.414 522.304H210.304V509.108H215.418V526.662H203.552C198.949 525.455 198.724 522.202 198.724 522.202Z" fill="url(#paint29_linear_573_707)"/>
<rect x="413.556" y="437.127" width="120.251" height="120.251" rx="12.7539" stroke="url(#paint30_linear_573_707)" stroke-width="3.64398"/>
<path d="M479.647 482.086C479.647 478.712 476.909 475.999 473.511 475.999C470.113 475.999 467.375 478.737 467.375 482.086C467.375 485.46 470.113 488.173 473.511 488.173C476.909 488.173 479.647 485.46 479.647 482.086Z" fill="url(#paint31_linear_573_707)"/>
<path d="M481.236 520.956H465.81C465.248 520.956 464.759 521.274 464.441 521.714C464.123 522.154 463.928 522.741 463.928 523.401V523.425C463.928 528.315 466.275 533.693 468.573 537.873C470.871 542.054 473.193 545.036 473.193 545.036L473.242 545.109L473.535 545.476L473.877 545.036C473.877 545.036 476.2 542.054 478.498 537.873C480.796 533.693 483.143 528.315 483.143 523.425V523.401C483.143 522.741 482.947 522.154 482.629 521.714C482.263 521.249 481.774 520.956 481.236 520.956Z" fill="url(#paint32_linear_573_707)"/>
<path d="M486.859 520.516C487.152 520.785 487.519 520.956 487.934 520.956H488.888L499.424 520.883C499.522 520.883 499.644 520.883 499.791 520.785C499.913 520.736 500.011 520.638 500.084 520.516C500.231 520.272 500.256 520.052 500.256 519.807C500.256 519.538 500.207 519.269 500.133 518.903C500.06 518.585 499.938 518.218 499.791 517.778C499.449 516.776 499.058 515.822 498.666 514.967L491.308 498.905V498.856C491.161 493.942 490.966 488.417 490.648 484.555C490.501 482.892 490.379 481.792 490.232 481.035C487.837 469.691 482.361 458.788 474.391 449.474C474.195 449.229 473.878 449.083 473.56 449.083H473.462C473.144 449.107 472.851 449.254 472.655 449.474C464.686 458.788 459.209 469.716 456.814 481.059C456.667 481.792 456.52 482.917 456.398 484.579C456.08 488.442 455.885 493.991 455.738 498.881L455.714 498.954L455.616 499.198L448.38 514.991C447.988 515.847 447.597 516.8 447.255 517.802C447.108 518.242 446.986 518.609 446.913 518.927C446.815 519.294 446.791 519.587 446.791 519.856C446.791 520.076 446.815 520.296 446.962 520.54C447.035 520.638 447.133 520.736 447.255 520.809C447.402 520.883 447.524 520.907 447.597 520.907L458.183 520.98H459.112C459.527 520.98 459.894 520.834 460.187 520.54C460.481 520.247 460.652 519.856 460.652 519.44V502.988C460.652 502.205 460.676 500.812 460.701 499.125V498.881C460.75 496.852 460.799 494.969 460.872 493.258C460.97 490.74 461.067 488.564 461.19 486.804C461.336 484.775 461.483 483.21 461.654 482.404C462.754 476.903 464.686 471.427 467.35 466.122C469.086 462.651 471.164 459.301 473.193 456.686L473.535 456.246L473.878 456.686C475.907 459.301 477.985 462.675 479.72 466.122C482.385 471.427 484.292 476.903 485.416 482.404C485.587 483.21 485.759 484.775 485.881 486.804C486.003 488.564 486.101 490.74 486.199 493.258C486.272 494.994 486.321 496.876 486.37 498.881V499.125C486.394 500.812 486.419 502.181 486.419 502.988V519.44C486.394 519.831 486.565 520.247 486.859 520.516Z" fill="url(#paint33_linear_573_707)"/>
<rect x="276.311" y="437.127" width="120.251" height="120.251" rx="12.7539" stroke="url(#paint34_linear_573_707)" stroke-width="3.64398"/>
<path d="M336.473 458.316C314.563 458.316 296.804 475.789 296.804 497.345C296.804 517.32 312.057 533.789 331.728 536.095V503.354C331.728 498.82 327.979 495.129 323.369 495.129H322.422C317.814 495.129 314.062 498.818 314.062 503.354V503.589H304.573V503.354C304.573 493.671 312.58 485.793 322.422 485.793H323.369C328.544 485.793 333.21 487.973 336.473 491.447C339.736 487.973 344.402 485.793 349.577 485.793H350.524C360.366 485.793 368.373 493.671 368.373 503.354V503.589H358.884V503.354C358.884 498.82 355.134 495.129 350.524 495.129H349.577C344.967 495.129 341.217 498.818 341.217 503.354V536.097C360.889 533.789 376.141 517.322 376.141 497.348C376.141 475.789 358.38 458.316 336.473 458.316Z" fill="url(#paint35_linear_573_707)"/>
<defs>
<linearGradient id="paint0_linear_573_707" x1="61.9476" y1="0.858887" x2="61.9476" y2="124.754" gradientUnits="userSpaceOnUse">
<stop stop-color="#F8DD90"/>
<stop offset="1" stop-color="#8B5E35"/>
</linearGradient>
<linearGradient id="paint1_linear_573_707" x1="30.2053" y1="31.2125" x2="85.7258" y2="108.369" gradientUnits="userSpaceOnUse">
<stop stop-color="#F8DD90"/>
<stop offset="1" stop-color="#8B5E35"/>
</linearGradient>
<linearGradient id="paint2_linear_573_707" x1="198.843" y1="0.858887" x2="198.843" y2="124.754" gradientUnits="userSpaceOnUse">
<stop stop-color="#F8DD90"/>
<stop offset="1" stop-color="#8B5E35"/>
</linearGradient>
<linearGradient id="paint3_linear_573_707" x1="167.715" y1="24.7672" x2="235.477" y2="103.077" gradientUnits="userSpaceOnUse">
<stop stop-color="#F8DD90"/>
<stop offset="1" stop-color="#8B5E35"/>
</linearGradient>
<linearGradient id="paint4_linear_573_707" x1="335.738" y1="0.858887" x2="335.738" y2="124.754" gradientUnits="userSpaceOnUse">
<stop stop-color="#F8DD90"/>
<stop offset="1" stop-color="#8B5E35"/>
</linearGradient>
<linearGradient id="paint5_linear_573_707" x1="302.286" y1="24.7669" x2="370.294" y2="108.686" gradientUnits="userSpaceOnUse">
<stop stop-color="#F8DD90"/>
<stop offset="1" stop-color="#8B5E35"/>
</linearGradient>
<linearGradient id="paint6_linear_573_707" x1="472.633" y1="0.858887" x2="472.633" y2="124.754" gradientUnits="userSpaceOnUse">
<stop stop-color="#F8DD90"/>
<stop offset="1" stop-color="#8B5E35"/>
</linearGradient>
<linearGradient id="paint7_linear_573_707" x1="427.645" y1="32.3198" x2="510.045" y2="103.997" gradientUnits="userSpaceOnUse">
<stop stop-color="#F8DD90"/>
<stop offset="1" stop-color="#8B5E35"/>
</linearGradient>
<linearGradient id="paint8_linear_573_707" x1="61.9476" y1="145.754" x2="61.9476" y2="269.649" gradientUnits="userSpaceOnUse">
<stop stop-color="#F8DD90"/>
<stop offset="1" stop-color="#8B5E35"/>
</linearGradient>
<linearGradient id="paint9_linear_573_707" x1="33.0852" y1="173.715" x2="92.6715" y2="247.572" gradientUnits="userSpaceOnUse">
<stop stop-color="#F8DD90"/>
<stop offset="1" stop-color="#8B5E35"/>
</linearGradient>
<linearGradient id="paint10_linear_573_707" x1="198.843" y1="145.754" x2="198.843" y2="269.649" gradientUnits="userSpaceOnUse">
<stop stop-color="#F8DD90"/>
<stop offset="1" stop-color="#8B5E35"/>
</linearGradient>
<linearGradient id="paint11_linear_573_707" x1="167.593" y1="170.95" x2="233.037" y2="251.054" gradientUnits="userSpaceOnUse">
<stop stop-color="#F8DD90"/>
<stop offset="1" stop-color="#8B5E35"/>
</linearGradient>
<linearGradient id="paint12_linear_573_707" x1="335.738" y1="145.754" x2="335.738" y2="269.649" gradientUnits="userSpaceOnUse">
<stop stop-color="#F8DD90"/>
<stop offset="1" stop-color="#8B5E35"/>
</linearGradient>
<linearGradient id="paint13_linear_573_707" x1="307.943" y1="178.381" x2="360.185" y2="247.968" gradientUnits="userSpaceOnUse">
<stop stop-color="#F8DD90"/>
<stop offset="1" stop-color="#8B5E35"/>
</linearGradient>
<linearGradient id="paint14_linear_573_707" x1="472.633" y1="145.754" x2="472.633" y2="269.649" gradientUnits="userSpaceOnUse">
<stop stop-color="#F8DD90"/>
<stop offset="1" stop-color="#8B5E35"/>
</linearGradient>
<linearGradient id="paint15_linear_573_707" x1="439.61" y1="168.656" x2="510.86" y2="251.977" gradientUnits="userSpaceOnUse">
<stop stop-color="#F8DD90"/>
<stop offset="1" stop-color="#8B5E35"/>
</linearGradient>
<linearGradient id="paint16_linear_573_707" x1="61.9476" y1="290.649" x2="61.9476" y2="414.544" gradientUnits="userSpaceOnUse">
<stop stop-color="#F8DD90"/>
<stop offset="1" stop-color="#8B5E35"/>
</linearGradient>
<linearGradient id="paint17_linear_573_707" x1="34.4299" y1="313.197" x2="105.652" y2="385.129" gradientUnits="userSpaceOnUse">
<stop stop-color="#F8DD90"/>
<stop offset="1" stop-color="#8B5E35"/>
</linearGradient>
<linearGradient id="paint18_linear_573_707" x1="198.843" y1="290.649" x2="198.843" y2="414.544" gradientUnits="userSpaceOnUse">
<stop stop-color="#F8DD90"/>
<stop offset="1" stop-color="#8B5E35"/>
</linearGradient>
<linearGradient id="paint19_linear_573_707" x1="162.442" y1="316.857" x2="222.374" y2="405.078" gradientUnits="userSpaceOnUse">
<stop stop-color="#F8DD90"/>
<stop offset="1" stop-color="#8B5E35"/>
</linearGradient>
<linearGradient id="paint20_linear_573_707" x1="335.738" y1="290.649" x2="335.738" y2="414.544" gradientUnits="userSpaceOnUse">
<stop stop-color="#F8DD90"/>
<stop offset="1" stop-color="#8B5E35"/>
</linearGradient>
<linearGradient id="paint21_linear_573_707" x1="297.134" y1="310.684" x2="370.747" y2="406.698" gradientUnits="userSpaceOnUse">
<stop stop-color="#F8DD90"/>
<stop offset="1" stop-color="#8B5E35"/>
</linearGradient>
<linearGradient id="paint22_linear_573_707" x1="472.633" y1="290.649" x2="472.633" y2="414.544" gradientUnits="userSpaceOnUse">
<stop stop-color="#F8DD90"/>
<stop offset="1" stop-color="#8B5E35"/>
</linearGradient>
<linearGradient id="paint23_linear_573_707" x1="447.067" y1="332.192" x2="478.281" y2="393.744" gradientUnits="userSpaceOnUse">
<stop stop-color="#F8DD90"/>
<stop offset="1" stop-color="#8B5E35"/>
</linearGradient>
<linearGradient id="paint24_linear_573_707" x1="447.067" y1="332.192" x2="478.281" y2="393.744" gradientUnits="userSpaceOnUse">
<stop stop-color="#F8DD90"/>
<stop offset="1" stop-color="#8B5E35"/>
</linearGradient>
<linearGradient id="paint25_linear_573_707" x1="447.067" y1="332.192" x2="478.281" y2="393.744" gradientUnits="userSpaceOnUse">
<stop stop-color="#F8DD90"/>
<stop offset="1" stop-color="#8B5E35"/>
</linearGradient>
<linearGradient id="paint26_linear_573_707" x1="61.9476" y1="435.305" x2="61.9476" y2="559.2" gradientUnits="userSpaceOnUse">
<stop stop-color="#F8DD90"/>
<stop offset="1" stop-color="#8B5E35"/>
</linearGradient>
<linearGradient id="paint27_linear_573_707" x1="26.3005" y1="464.525" x2="80.775" y2="548.122" gradientUnits="userSpaceOnUse">
<stop stop-color="#F8DD90"/>
<stop offset="1" stop-color="#8B5E35"/>
</linearGradient>
<linearGradient id="paint28_linear_573_707" x1="199.192" y1="435.305" x2="199.192" y2="559.2" gradientUnits="userSpaceOnUse">
<stop stop-color="#F8DD90"/>
<stop offset="1" stop-color="#8B5E35"/>
</linearGradient>
<linearGradient id="paint29_linear_573_707" x1="169.632" y1="460.421" x2="235.461" y2="535.444" gradientUnits="userSpaceOnUse">
<stop stop-color="#F8DD90"/>
<stop offset="1" stop-color="#8B5E35"/>
</linearGradient>
<linearGradient id="paint30_linear_573_707" x1="473.682" y1="435.305" x2="473.682" y2="559.2" gradientUnits="userSpaceOnUse">
<stop stop-color="#F8DD90"/>
<stop offset="1" stop-color="#8B5E35"/>
</linearGradient>
<linearGradient id="paint31_linear_573_707" x1="450.276" y1="449.063" x2="532.303" y2="505.455" gradientUnits="userSpaceOnUse">
<stop stop-color="#F8DD90"/>
<stop offset="1" stop-color="#8B5E35"/>
</linearGradient>
<linearGradient id="paint32_linear_573_707" x1="450.276" y1="449.063" x2="532.303" y2="505.455" gradientUnits="userSpaceOnUse">
<stop stop-color="#F8DD90"/>
<stop offset="1" stop-color="#8B5E35"/>
</linearGradient>
<linearGradient id="paint33_linear_573_707" x1="450.276" y1="449.063" x2="532.303" y2="505.455" gradientUnits="userSpaceOnUse">
<stop stop-color="#F8DD90"/>
<stop offset="1" stop-color="#8B5E35"/>
</linearGradient>
<linearGradient id="paint34_linear_573_707" x1="336.437" y1="435.305" x2="336.437" y2="559.2" gradientUnits="userSpaceOnUse">
<stop stop-color="#F8DD90"/>
<stop offset="1" stop-color="#8B5E35"/>
</linearGradient>
<linearGradient id="paint35_linear_573_707" x1="301.977" y1="458.3" x2="370.961" y2="545.515" gradientUnits="userSpaceOnUse">
<stop stop-color="#F8DD90"/>
<stop offset="1" stop-color="#8B5E35"/>
</linearGradient>
</defs>
</svg>
