<svg width="301" height="39" viewBox="0 0 301 39" fill="none" xmlns="http://www.w3.org/2000/svg">
<path d="M71.0605 31.0633H79.1521V9.23029H89.8373V1.73846H71.0605V31.0633Z" fill="white"/>
<path d="M54.3455 24.5256C53.4612 24.5666 52.5781 24.4227 51.7527 24.103C50.9272 23.7834 50.1776 23.2951 49.5515 22.6692C48.9255 22.0432 48.4373 21.2938 48.1175 20.4684C47.7977 19.6431 47.6538 18.7601 47.6949 17.876H67.6467C67.6467 17.876 67.7796 16.3688 67.7796 14.8171C67.7796 5.95094 62.5257 1.07455 54.3233 1.07455C45.6554 1.07455 39.6255 7.39168 39.6255 16.413C39.6255 25.4343 45.5667 31.9288 54.2346 31.9288C62.2818 31.9288 67.6909 27.2741 67.8462 20.4472H59.9319C59.6938 21.7097 58.9836 22.8339 57.9458 23.5915C56.9081 24.3491 55.6208 24.6831 54.3455 24.5256ZM54.3455 7.81293C55.0122 7.71988 55.6908 7.7615 56.3409 7.93539C56.9913 8.10929 57.6 8.41185 58.1313 8.82528C58.6626 9.2387 59.1054 9.75438 59.4338 10.3419C59.762 10.9294 59.9691 11.577 60.0428 12.2459H48.1383C48.5389 10.9084 49.3774 9.74417 50.5192 8.94014C51.6608 8.1363 53.0396 7.73929 54.4341 7.81293H54.3455Z" fill="white"/>
<path d="M25.5263 1.7382L19.9621 19.7143L14.5529 1.7382H5.61903L0.963623 31.0631H8.39009L11.2055 12.821L16.6811 31.0631H23.0436L28.7187 12.4884L31.4231 31.0631H38.9606L34.3273 1.7382H25.5263Z" fill="white"/>
<path d="M104.668 1.02943C96.0446 1.02943 91.1454 5.26305 91.3671 12.4669H99.7468C99.7468 9.40804 101.343 8.03369 104.69 8.03369C107.085 8.03369 108.592 9.03123 108.592 10.5384C108.592 11.5138 108.215 11.8906 106.752 12.3116L100.101 14.1514C93.6283 15.9024 90.7463 18.5844 90.7463 23.0176C90.7463 28.2707 94.5594 31.773 100.168 31.773C101.958 31.9523 103.759 31.5596 105.313 30.6517C106.866 29.7437 108.092 28.3671 108.814 26.7192V31.1522H116.551V11.5802C116.44 4.50942 111.962 1.02943 104.668 1.02943ZM101.786 24.9459C99.7246 24.9459 98.7271 23.9485 98.7271 22.4855C98.7271 21.0227 99.4364 20.2691 101.653 19.5819L108.659 17.6091V18.1412C108.68 19.0463 108.517 19.9463 108.178 20.7862C107.84 21.6259 107.333 22.3877 106.69 23.0248C106.046 23.662 105.279 24.161 104.436 24.4914C103.593 24.8216 102.691 24.9765 101.786 24.9459Z" fill="white"/>
<path d="M275.971 1.63484V9.1267H284.351V30.9595H292.442V9.1267H300.822V1.63484H275.971Z" fill="white"/>
<path d="M246.841 1.63484H237.929L231.634 12.5179H228.419V1.63484H220.328V30.9595H228.419V19.7218H231.589L238.351 30.9595H247.484L238.55 15.998L246.841 1.63484Z" fill="white"/>
<path d="M174.617 0.92598C165.993 0.92598 161.071 5.15967 161.315 12.3634H169.695C169.695 9.30452 171.291 7.93037 174.639 7.93037C177.033 7.93037 178.54 8.94993 178.54 10.4571C178.54 11.4103 178.163 11.7871 176.678 12.2083L170.028 14.0479C163.577 15.8213 160.695 18.4811 160.695 22.9141C160.695 28.1451 164.508 31.6694 170.116 31.6694C171.908 31.8633 173.715 31.4743 175.269 30.5598C176.823 29.6455 178.04 28.2546 178.74 26.5935V31.0267H186.499V11.388C186.388 4.40606 181.91 0.92598 174.617 0.92598ZM171.69 24.8425C169.673 24.8425 168.653 23.845 168.653 22.36C168.653 20.875 169.385 20.1434 171.601 19.5229L178.585 17.55V18.0377C178.606 18.9447 178.442 19.8468 178.102 20.6881C177.762 21.5293 177.254 22.2924 176.608 22.9297C175.962 23.5672 175.193 24.0657 174.347 24.3947C173.501 24.7237 172.597 24.876 171.69 24.8425Z" fill="white"/>
<path d="M206.162 0.926412C204.472 0.820554 202.792 1.25819 201.368 2.17549C199.944 3.09279 198.851 4.44152 198.248 6.02458V1.59137H190.157V38.9622H198.248V26.6383C198.872 28.1986 199.973 29.5215 201.395 30.4174C202.817 31.3133 204.486 31.7361 206.162 31.6257C212.813 31.6257 217.247 26.4388 217.247 16.2871C217.247 6.13524 212.879 0.926412 206.162 0.926412ZM203.946 24.1336C200.243 24.1336 198.027 21.6068 198.027 16.2871C198.027 10.9675 200.243 8.41827 203.901 8.41827C207.559 8.41827 209.377 10.9675 209.377 16.2871C209.377 21.6068 207.515 24.1336 203.901 24.1336H203.946Z" fill="white"/>
<path d="M145.287 1.63484L139.723 19.5888L134.314 1.63484H125.38L120.725 30.9595H128.151L130.966 12.7174L136.442 30.9595H142.805L148.48 12.3851L151.184 30.9595H158.722L154.088 1.63484H145.287Z" fill="white"/>
<path d="M260.63 24.4216C259.746 24.4592 258.864 24.3131 258.041 23.9921C257.217 23.6714 256.468 23.1829 255.843 22.5578C255.218 21.9326 254.729 21.1844 254.408 20.3606C254.088 19.5367 253.941 18.6553 253.979 17.772H273.931C273.931 17.772 274.064 16.2648 274.064 14.7131C274.064 5.84712 268.832 0.970673 260.607 0.970673C251.94 0.970673 245.91 7.28769 245.91 16.287C245.91 25.286 251.851 31.8028 260.519 31.8028C268.566 31.8028 273.975 27.1481 274.152 20.321H266.216C265.983 21.5876 265.275 22.7173 264.236 23.4793C263.198 24.2415 261.908 24.5785 260.63 24.4216ZM260.63 7.70892C261.297 7.61888 261.976 7.6627 262.626 7.83759C263.277 8.01249 263.886 8.31505 264.418 8.72768C264.95 9.1403 265.395 9.65458 265.727 10.2407C266.058 10.827 266.27 11.4732 266.349 12.1419H254.422C254.819 10.8024 255.657 9.63577 256.8 8.83133C257.942 8.0269 259.323 7.63128 260.718 7.70892H260.63Z" fill="white"/>
</svg>
