<svg width="274" height="78" viewBox="0 0 274 78" fill="none" xmlns="http://www.w3.org/2000/svg">
<path fill-rule="evenodd" clip-rule="evenodd" d="M259.944 28.2421C269.258 28.2421 275.234 35.5998 273.742 44.5416H252.41C252.878 48.4218 256.113 50.8407 259.737 50.838C263.035 50.8353 265.756 49.3391 267.227 46.307L273.118 49.2832C270.717 53.9847 265.669 57.0702 259.946 57.0702C251.335 57.025 245.348 50.6167 245.348 42.6561C245.348 34.6956 251.382 28.2873 259.946 28.2421H259.944ZM267.061 39.6453C266.349 36.6558 263.121 34.4637 259.843 34.4637C256.567 34.4637 253.436 36.5652 252.628 39.6453H267.061Z" fill="white"/>
<path d="M237.908 29.0234L231.213 48.603L224.564 29.0234H217.03L226.997 56.2862H235.476L245.442 29.0234H237.908Z" fill="white"/>
<path d="M206.277 56.2862H213.362V29.0234H206.277V56.2862Z" fill="white"/>
<path fill-rule="evenodd" clip-rule="evenodd" d="M206.277 18.4631H213.364V25.5542H206.277V18.4631Z" fill="white"/>
<path d="M191.387 31.9815L191.182 29.0266H184.608V56.2869H191.694V44.4436C191.694 37.7553 196.781 34.8804 202.406 36.1151V28.8293C198.983 27.9733 193.955 28.5013 191.387 31.9815Z" fill="white"/>
<path d="M162.058 49.5448H156.607V28.3302H162.058C168.303 28.3302 172.714 32.6904 172.714 38.9387C172.714 45.1872 168.303 49.5473 162.058 49.5473V49.5448ZM162.058 21.5885H149.516V56.2865H162.058C172.17 56.2865 179.803 48.8513 179.803 38.9362C179.803 29.0208 172.17 21.5858 162.058 21.5858V21.591V21.5885Z" fill="white"/>
<path d="M124.944 31.8374L124.738 29.0211H118.165V56.2841H125.25V42.2593C125.25 33.8987 136.803 33.2587 136.803 40.4191V56.2841H143.891V39.7871C143.891 27.5704 130.416 26.0769 124.944 31.8399V31.8374Z" fill="white"/>
<path d="M105.587 56.2864H112.675V29.0234H105.587V56.2864Z" fill="white"/>
<path fill-rule="evenodd" clip-rule="evenodd" d="M105.587 18.4631H112.675V25.5542H105.587V18.4631Z" fill="white"/>
<path d="M0.973145 38.9366C0.973145 28.2052 0.973145 22.8369 2.46923 18.5194C5.19205 10.6709 11.3631 4.49991 19.2115 1.77709C23.5291 0.281006 28.8974 0.281006 39.6287 0.281006C50.3601 0.281006 55.7284 0.281006 60.0458 1.77709C67.897 4.49991 74.0654 10.6683 76.7881 18.5194C78.2843 22.8369 78.2843 28.2027 78.2843 38.9366C78.2843 49.6705 78.2843 55.0362 76.7881 59.3537C74.0654 67.2048 67.897 73.3733 60.0458 76.096C55.7284 77.5922 50.3626 77.5922 39.6287 77.5922C28.8948 77.5922 23.5291 77.5922 19.2115 76.096C11.3604 73.3733 5.19205 67.2048 2.46923 59.3537C0.973145 55.0362 0.973145 49.6705 0.973145 38.9366Z" fill="white"/>
<path fill-rule="evenodd" clip-rule="evenodd" d="M25.1122 18.6097H25.0749C24.5789 18.6097 24.1522 18.6097 23.8082 18.6551C23.4429 18.7031 23.0909 18.8151 22.8054 19.1004C22.5202 19.3858 22.408 19.7378 22.3601 20.1031C22.3147 20.4444 22.3147 20.8739 22.3147 21.3698V24.7087C22.3147 25.2048 22.3147 25.6314 22.3601 25.9754C22.4108 26.3434 22.5202 26.6929 22.8054 26.9782C23.0909 27.2636 23.4429 27.3755 23.8082 27.4235C24.1495 27.4689 24.5789 27.4689 25.0749 27.4689H28.6565C29.1525 27.4689 29.5792 27.4689 29.9233 27.4235C30.2886 27.3755 30.6405 27.2636 30.926 26.9782C31.2113 26.6929 31.3234 26.3409 31.3713 25.9754C31.4167 25.6341 31.4167 25.2048 31.4167 24.7087V21.3698C31.4167 20.8739 31.4167 20.4471 31.3713 20.1031C31.3207 19.7351 31.2113 19.3858 30.926 19.1004C30.6405 18.8151 30.2886 18.7031 29.9233 18.6551C29.5819 18.6097 29.1525 18.6097 28.6565 18.6097H25.1122ZM25.1122 33.8505H25.0749C24.5789 33.8505 24.1522 33.8505 23.8082 33.896C23.4429 33.9466 23.0909 34.056 22.8054 34.3413C22.5202 34.6266 22.408 34.9787 22.3601 35.344C22.3147 35.6853 22.3147 36.1148 22.3147 36.6107V56.4012C22.3147 56.8972 22.3147 57.324 22.3601 57.668C22.4108 58.036 22.5202 58.3854 22.8054 58.6707C23.0909 58.956 23.4429 59.0681 23.8082 59.116C24.1495 59.1614 24.5789 59.1614 25.0749 59.1614H28.6565C29.1525 59.1614 29.5792 59.1614 29.9233 59.116C30.2886 59.0654 30.6405 58.956 30.926 58.6707C31.2113 58.3854 31.3234 58.0333 31.3713 57.668C31.4167 57.3267 31.4167 56.8972 31.4167 56.4012V36.6107C31.4167 36.1148 31.4167 35.688 31.3713 35.344C31.3207 34.976 31.2113 34.6266 30.926 34.3413C30.6405 34.056 30.2886 33.9439 29.9233 33.896C29.5819 33.8505 29.1525 33.8505 28.6565 33.8505H25.1122ZM40.8039 18.6097H44.7454C56.434 18.6097 65.2906 27.2449 65.2906 38.8881C65.2906 50.5316 56.434 59.1667 44.7454 59.1667H40.8039C40.3079 59.1667 39.8811 59.1667 39.5371 59.1214C39.1691 59.0708 38.8197 58.9614 38.5344 58.6761C38.2491 58.3907 38.137 58.0387 38.0891 57.6734C38.0437 57.3321 38.0437 56.9026 38.0437 56.4067V53.1478C38.0437 52.6517 38.0437 52.2251 38.0891 51.8811C38.137 51.513 38.2491 51.1636 38.5344 50.8783C38.8197 50.5929 39.1718 50.4809 39.5371 50.4328C39.8784 50.3876 40.3079 50.3876 40.8039 50.3876H44.7454C48.127 50.3876 50.9805 49.1982 52.9885 47.1848C54.9966 45.1739 56.1888 42.3045 56.1888 38.8908C56.1888 35.4774 54.9939 32.608 52.9885 30.5971C50.9805 28.5837 48.127 27.3943 44.7481 27.3943H40.8066C40.3104 27.3943 39.8839 27.3943 39.5398 27.3489C39.1718 27.3009 38.8224 27.1888 38.5371 26.9036C38.2518 26.6183 38.1397 26.2661 38.0918 25.9008C38.0464 25.5595 38.0464 25.13 38.0464 24.6341V21.3752C38.0464 20.8793 38.0464 20.4525 38.0918 20.1085C38.1397 19.7405 38.2518 19.3911 38.5371 19.1057C38.8224 18.8204 39.1745 18.7084 39.5398 18.6604C39.8811 18.615 40.3104 18.615 40.8066 18.615L40.8039 18.6097Z" fill="#1B1B1C"/>
</svg>
