<svg width="238" height="46" viewBox="0 0 238 46" fill="none" xmlns="http://www.w3.org/2000/svg">
<g clip-path="url(#clip0_534_94)">
<mask id="mask0_534_94" style="mask-type:luminance" maskUnits="userSpaceOnUse" x="0" y="0" width="238" height="46">
<path d="M237.445 0.614029H0.121094V45.2591H237.445V0.614029Z" fill="white"/>
</mask>
<g mask="url(#mask0_534_94)">
<path d="M126.824 37.7718V8.10246H145.256V14.9936H134.51V37.7718H126.824Z" fill="white"/>
<path d="M168.446 37.7718V26.1518H157.028V37.7718H149.342V8.10246H157.028V19.1748H168.446V8.10246H176.131V37.7718H168.446Z" fill="white"/>
<path d="M220.734 37.7718V14.9936H211.757V8.10246H237.444V14.9936H228.424V37.7718H220.734Z" fill="white"/>
<path d="M200.448 37.7678V20.8628L188.214 37.7678H181.787V8.10646H189.473V24.8355L201.502 8.10646H208.138V37.7678H200.448Z" fill="white"/>
<path d="M82.6566 37.7718V20.1394L74.9829 29.4544L67.3093 20.1394V37.7718H59.6235V8.10246H67.2087L74.9829 18.3042L82.7572 8.10246H90.3422V37.7718H82.6566Z" fill="white"/>
<path d="M104.933 27.3369H112.076L108.505 18.0342L104.933 27.3369ZM116.082 37.7676L114.473 33.6107H102.524L100.915 37.7676H93.1897L105.01 8.10223H112.116L123.941 37.7676H116.082Z" fill="white"/>
<path d="M0.113281 14.1307C0.120723 10.5476 1.52493 7.11334 4.01846 4.58002C6.51198 2.04669 9.89164 0.620676 13.4175 0.614197H44.1323V7.48486H13.4255C11.693 7.49238 10.0336 8.19486 8.80815 9.43947C7.58273 10.6841 6.89048 12.3701 6.88202 14.1307L6.84179 25.665C6.7016 27.1428 6.08376 28.5317 5.08475 29.6152C4.08575 30.6984 2.76186 31.4148 1.31983 31.6529L0.113281 31.8408V14.1307Z" fill="white"/>
<path d="M0.11499 45.2592V38.3883H30.8296C32.5626 38.3799 34.222 37.6764 35.4474 36.4312C36.6725 35.1859 37.3647 33.4995 37.3732 31.7386V20.7928C37.3817 19.2048 37.9454 17.6716 38.9635 16.4669C39.9817 15.2622 41.388 14.4646 42.9313 14.2164L44.1379 14.0325V31.7386C44.1304 35.3222 42.7264 38.7568 40.2328 41.2907C37.7395 43.8247 34.3599 45.2515 30.8336 45.2592H0.11499Z" fill="white"/>
<path d="M26.1346 31.8655V22.984L22.1288 27.8437L18.1271 22.984V31.8655H12.8223V14.3885H17.8455L22.1288 20.0085L26.4121 14.3885H31.4353V31.8655H26.1346Z" fill="white"/>
</g>
</g>
<defs>
<clipPath id="clip0_534_94">
<rect width="237.324" height="44.6451" fill="white" transform="translate(0.121094 0.614029)"/>
</clipPath>
</defs>
</svg>
