<svg width="257" height="90" viewBox="0 0 257 90" fill="none" xmlns="http://www.w3.org/2000/svg">
<g clip-path="url(#clip0_558_54)">
<mask id="mask0_558_54" style="mask-type:luminance" maskUnits="userSpaceOnUse" x="0" y="-30" width="294" height="120">
<path d="M0.595703 89.8731H293.214V-29.911H0.595703V89.8731Z" fill="white"/>
</mask>
<g mask="url(#mask0_558_54)">
<path d="M29.4516 0.000495911C35.5677 0.000495911 37.4895 4.38728 39.1019 8.7672C39.7792 10.6271 55.6727 54.1512 56.1506 55.4576C56.2778 55.822 56.1918 56.4202 55.6314 56.6368C55.0676 56.85 46.8097 60.061 46.3525 60.2329C45.8952 60.4082 45.383 60.1538 45.218 59.6966C45.0461 59.2462 41.6185 49.7575 41.2334 48.6987H17.6768C17.3055 49.7575 13.8366 59.2668 13.6819 59.6966C13.5238 60.1332 13.0321 60.4289 12.5439 60.2329C12.0558 60.0404 3.76693 56.8293 3.27187 56.6368C2.79744 56.4512 2.58085 55.9114 2.74587 55.4576C3.33031 53.828 18.9832 11.0018 19.7808 8.7672C21.3347 4.45261 23.3218 0.000495911 29.4516 0.000495911ZM1.48759 77.8797C0.992528 77.8797 0.597168 78.2923 0.597168 78.7942V88.967C0.597168 89.469 0.992528 89.8746 1.48759 89.8746H57.3916C57.897 89.8746 58.2924 89.469 58.2924 88.967V78.7942C58.2924 78.2923 57.897 77.8797 57.3916 77.8797H1.48759ZM29.3966 14.2129L21.4344 38.1236H37.4895L29.4998 14.2129H29.3966ZM148.875 53.4189C147.702 53.8143 146.929 53.9105 146.008 53.9105C144.103 53.9105 143.047 53.1576 143.047 51.2049C143.047 49.1697 144.388 48.4889 147.022 48.4889C147.665 48.4889 148.297 48.5818 148.593 48.6849V50.1426C148.593 51.7137 148.679 52.7451 148.875 53.4189ZM155.644 55.7498C154.238 53.6149 153.87 52.3566 153.87 49.6647V44.1984C153.87 41.2556 153.526 40.1932 152.749 39.1206C151.666 37.601 149.861 36.941 146.544 36.941C144.196 36.941 141.916 37.1954 139.709 37.7592L140.507 41.644C141.999 41.4343 143.563 41.2556 144.667 41.2556C148.191 41.2556 148.593 41.7644 148.593 44.4081V45.3948C147.809 45.1851 146.929 45.0338 145.908 45.0338C140.603 45.0338 137.801 47.6295 137.801 51.9269C137.801 55.9561 140.796 58.1529 144.443 58.1529C145.805 58.1529 147.228 57.902 148.356 57.4413C149.036 57.1456 149.332 56.9703 150.212 56.3996C150.742 57.1697 151.804 57.957 152.237 58.1048L155.644 55.7498ZM208.117 53.4189C206.938 53.8143 206.178 53.9105 205.25 53.9105C203.338 53.9105 202.269 53.1576 202.269 51.2049C202.269 49.1697 203.627 48.4889 206.267 48.4889C206.91 48.4889 207.546 48.5818 207.835 48.6849V50.1426C207.835 51.7137 207.918 52.7451 208.117 53.4189ZM214.893 55.7498C213.477 53.6149 213.116 52.3566 213.116 49.6647V44.1984C213.116 41.2556 212.765 40.1932 211.981 39.1206C210.912 37.601 209.104 36.941 205.776 36.941C203.431 36.941 201.138 37.1954 198.931 37.7592L199.718 41.644C201.214 41.4343 202.781 41.2556 203.916 41.2556C207.419 41.2556 207.835 41.7644 207.835 44.4081V45.3948C207.051 45.1851 206.178 45.0338 205.136 45.0338C199.825 45.0338 197.013 47.6295 197.013 51.9269C197.013 55.9561 200.014 58.1529 203.679 58.1529C205.057 58.1529 206.467 57.902 207.584 57.4413C208.275 57.1456 208.561 56.9703 209.441 56.3996C209.977 57.1697 211.039 57.957 211.476 58.1048L214.893 55.7498ZM256.196 57.6957C256.196 57.6957 253.288 51.4971 252.576 50.0876C251.775 48.4993 251.033 47.4026 249.396 47.0072V46.9178C250.493 46.7081 251.366 46.0446 252.322 44.0162C253.226 42.0394 253.494 41.6131 254.027 41.1421C254.55 40.6745 255.265 40.843 255.265 40.843L255.533 37.1885C254.773 37.0854 253.931 37.0819 253.061 37.1301C251.617 37.216 250.871 37.632 250.159 38.3471C249.602 38.8937 249.224 39.7119 248.757 40.6505C248.262 41.675 247.87 42.5001 247.354 43.5418C246.842 44.611 246.601 45.0923 245.223 45.0923H244.325V28.9031H239.014V57.6957H244.325V49.4172L245.051 49.4034C246.574 49.4034 246.842 49.785 247.646 51.3906C248.588 53.3055 250.393 57.6957 250.393 57.6957H256.196ZM106.564 57.6957H112.694L103.422 29.3844C102.446 29.0578 101.239 28.855 99.9497 28.855C98.5436 28.855 98.0416 29.0406 96.9415 29.3844L87.1297 57.6957H93.0119C93.0119 57.6957 93.8061 55.2135 94.7412 52.1366H104.904C105.811 55.2101 106.564 57.6957 106.564 57.6957ZM96.2333 47.3888C96.2333 47.3888 97.9316 41.7059 98.1963 40.8224C98.8702 38.5327 99.8947 34.8954 99.8947 34.8954H100.063C100.063 34.8954 101.012 38.6634 101.631 40.7811C101.865 41.6234 103.487 47.3888 103.487 47.3888H96.2333ZM164.693 44.1503C162.819 44.1503 161.296 45.6802 161.296 47.5538C161.296 49.4412 162.819 50.9608 164.693 50.9608C166.57 50.9608 168.086 49.4412 168.086 47.5538C168.086 45.6802 166.57 44.1503 164.693 44.1503ZM119.972 28.9031H114.647V57.6923H119.972V28.9031ZM225.774 41.5168C228.717 41.5787 229.081 42.1872 229.081 44.6557V57.6957H234.359V44.1984C234.359 41.2556 234.015 40.1932 233.231 39.1206C232.148 37.601 230.02 36.941 226.421 36.941C222.859 36.941 220.59 37.3191 217.671 38.1889V57.6957H223.003V41.7644C224.402 41.5615 224.65 41.5168 225.774 41.5168ZM133.143 28.3909C129.815 28.3909 128.003 29.0509 126.937 30.5671C126.154 31.6431 125.806 32.7295 125.806 35.6792V38.1889H123.163V42.4932H125.806V57.6957H131.087L131.073 42.4932H136.337V38.1889H131.073L131.087 35.8821C131.087 33.2418 131.489 32.7295 135.016 32.7295C135.398 32.7295 135.828 32.7501 136.285 32.7845L137.117 28.6487C135.814 28.4768 134.48 28.3909 133.143 28.3909ZM175.512 28.659C177.324 28.5524 181.373 28.4012 183.914 28.4012C184.378 28.4012 184.859 28.4046 185.341 28.4287C190.336 28.4287 193.2 32.066 193.2 36.3359C193.2 39.2409 191.869 41.1696 188.751 42.3179C192.419 43.1292 194.341 45.993 194.341 49.4963C194.341 52.0678 193.616 54.1099 192.285 55.5023C190.56 57.2006 187.947 58.1529 184.468 58.1529C181.373 58.1529 177.489 58.0567 175.512 57.9398V28.659ZM183.914 33.3758C183.034 33.3758 181.944 33.393 180.865 33.4309V40.3445H183.917C185.128 40.3445 186.101 40.0076 186.764 39.3578C187.397 38.7459 187.727 37.8795 187.727 36.8516C187.727 34.641 186.53 33.3896 184.306 33.3758H183.914ZM184.024 53.1886H184.254C187.029 53.1886 188.727 51.7137 188.748 48.7434C188.72 47.6776 188.311 46.6944 187.579 45.9827C186.778 45.1782 185.643 44.7588 184.313 44.7588H180.865V53.1576C181.838 53.1783 182.91 53.1817 184.024 53.1886Z" fill="white"/>
</g>
</g>
<defs>
<clipPath id="clip0_558_54">
<rect width="255.599" height="89.8731" fill="white" transform="translate(0.596191)"/>
</clipPath>
</defs>
</svg>
