<svg width="158" height="62" viewBox="0 0 158 62" fill="none" xmlns="http://www.w3.org/2000/svg">
<g clip-path="url(#clip0_534_2)">
<mask id="mask0_534_2" style="mask-type:luminance" maskUnits="userSpaceOnUse" x="0" y="0" width="158" height="62">
<path d="M0.346924 0.494995H157.752V61.3781H0.346924V0.494995Z" fill="white"/>
</mask>
<g mask="url(#mask0_534_2)">
<path d="M22.3622 38.4455C24.0385 38.4455 25.4002 37.0841 25.4002 35.4076V32.8577C25.4002 32.5509 25.6481 32.3029 25.9549 32.3029H39.0273C39.3341 32.3029 39.5821 32.5509 39.5821 32.8577V35.4115C39.5821 44.9188 31.8734 52.6274 22.3661 52.6274C12.8591 52.6274 5.15042 44.9188 5.15042 35.4115V29.1548C5.1505 29.0819 5.1362 29.0097 5.10835 28.9424C5.0805 28.875 5.03964 28.8138 4.98811 28.7623C4.93657 28.7108 4.87538 28.6699 4.80804 28.6421C4.7407 28.6142 4.66852 28.5999 4.59564 28.6H0.900483C0.827606 28.6001 0.755429 28.5858 0.688085 28.5579C0.620741 28.5301 0.559552 28.4892 0.50802 28.4377C0.456489 28.3861 0.415627 28.325 0.387774 28.2576C0.359922 28.1903 0.345625 28.1181 0.345703 28.0452V18.0265C0.345703 17.7197 0.593691 17.4717 0.900483 17.4717H4.59149C4.66439 17.4719 4.7366 17.4576 4.80397 17.4298C4.87135 17.4019 4.93258 17.3611 4.98414 17.3095C5.0357 17.258 5.07659 17.1968 5.10446 17.1294C5.13233 17.0621 5.14664 16.9899 5.14656 16.917V10.5816C5.14656 10.2745 5.39425 10.0268 5.70134 10.0268H18.7695C19.0766 10.0268 19.3243 10.2745 19.3243 10.5816V16.917C19.3243 17.2238 19.5723 17.4717 19.8794 17.4717H35.7847C36.0915 17.4717 36.3395 17.7197 36.3395 18.0265V28.0411C36.3396 28.114 36.3254 28.1862 36.2975 28.2535C36.2697 28.3209 36.2288 28.3821 36.1773 28.4337C36.1258 28.4853 36.0646 28.5262 35.9972 28.554C35.9298 28.5819 35.8576 28.5962 35.7847 28.5961H19.8794C19.8065 28.596 19.7343 28.6103 19.6669 28.6381C19.5995 28.666 19.5383 28.7068 19.4867 28.7583C19.4352 28.8099 19.3943 28.8711 19.3664 28.9384C19.3385 29.0058 19.3242 29.078 19.3243 29.1509V35.4076C19.3243 37.0841 20.6857 38.4455 22.3622 38.4455ZM59.084 38.4455C60.7605 38.4455 62.1219 37.0841 62.1219 35.4076V18.0265C62.1219 17.7197 62.3699 17.4717 62.6767 17.4717H76.0166C76.3314 17.4717 76.5833 17.7393 76.5675 18.0541L76.2999 35.4076C76.2999 44.9146 68.5912 52.6236 59.084 52.6236C49.577 52.6236 41.8683 44.9146 41.8683 35.4076V18.0265C41.8683 17.7197 42.1163 17.4717 42.4231 17.4717H55.4913C55.7984 17.4717 56.0461 17.7197 56.0461 18.0265V35.4076C56.0461 37.0841 57.4078 38.4455 59.084 38.4455Z" fill="#EDEFFF"/>
<path d="M97.5733 28.8675L95.9087 35.6201C95.5348 36.9934 96.5226 38.4021 97.9469 38.4416C98.873 38.4674 99.7809 38.1811 100.525 37.6286C101.268 37.0762 101.805 36.2897 102.047 35.3956L102.779 32.7043C102.811 32.5869 102.881 32.4832 102.978 32.4093C103.074 32.3354 103.193 32.2952 103.314 32.295H116.343C116.429 32.2951 116.513 32.3147 116.589 32.3525C116.666 32.3903 116.732 32.4452 116.784 32.5129C116.836 32.5807 116.871 32.6594 116.888 32.7431C116.904 32.8268 116.901 32.9131 116.879 32.9953L115.281 38.8585C113.066 46.9806 105.687 52.6193 97.2662 52.6193C87.11 52.6193 79.7319 42.9629 82.4036 33.1608L83.3204 29.1588C83.3425 29.0765 83.3454 28.9903 83.3289 28.9067C83.3124 28.8232 83.277 28.7445 83.2253 28.6768C83.1736 28.6091 83.107 28.5542 83.0307 28.5163C82.9544 28.4784 82.8704 28.4585 82.7852 28.4582H79.2282C79.1429 28.4582 79.0588 28.4385 78.9824 28.4007C78.906 28.3629 78.8393 28.308 78.7876 28.2403C78.7358 28.1726 78.7003 28.0938 78.6839 28.0101C78.6675 27.9265 78.6706 27.8402 78.693 27.7579L81.4238 17.7392C81.456 17.6218 81.5257 17.5182 81.6224 17.4443C81.7191 17.3704 81.8373 17.3302 81.959 17.33H86.1184C86.2401 17.3298 86.3584 17.2897 86.4551 17.2157C86.5518 17.1418 86.6215 17.0381 86.6535 16.9207L88.6603 10.2824C88.6924 10.165 88.7622 10.0614 88.8589 9.98744C88.9555 9.91351 89.0738 9.87334 89.1955 9.87311H102.224C102.31 9.87313 102.394 9.89281 102.47 9.9306C102.547 9.96839 102.613 10.0233 102.665 10.091C102.717 10.1588 102.752 10.2375 102.769 10.3212C102.785 10.4048 102.782 10.4911 102.76 10.5734L100.91 16.6297C100.888 16.7119 100.885 16.7981 100.902 16.8816C100.918 16.9652 100.954 17.0438 101.005 17.1115C101.057 17.1791 101.124 17.234 101.2 17.2719C101.276 17.3098 101.36 17.3296 101.445 17.33H117.296C117.381 17.33 117.465 17.3497 117.541 17.3874C117.618 17.4252 117.684 17.4801 117.736 17.5479C117.788 17.6156 117.823 17.6944 117.84 17.778C117.856 17.8617 117.853 17.948 117.831 18.0303L115.1 28.049C115.068 28.1663 114.998 28.2699 114.901 28.3439C114.805 28.4178 114.686 28.458 114.565 28.4582H98.1124C97.8566 28.4621 97.6401 28.6275 97.5733 28.8675ZM143.629 17.8022L138.781 35.6002C138.559 36.4173 138.074 37.1386 137.401 37.6528C136.728 38.1669 135.905 38.4455 135.058 38.4454C133.484 38.4454 132.339 36.9462 132.752 35.4271L137.478 18.0932C137.501 18.011 137.503 17.9248 137.487 17.8412C137.47 17.7577 137.435 17.6791 137.383 17.6114C137.331 17.5438 137.265 17.4889 137.189 17.451C137.112 17.4131 137.028 17.3932 136.943 17.3929H123.914C123.666 17.3929 123.446 17.5583 123.379 17.8022L119.011 33.8334C116.434 43.2935 123.556 52.6193 133.362 52.6193C142.193 52.6193 149.933 46.7089 152.254 38.1855L157.732 18.0894C157.754 18.0071 157.757 17.9209 157.74 17.8374C157.724 17.7538 157.688 17.6752 157.637 17.6076C157.585 17.5399 157.519 17.485 157.442 17.4471C157.366 17.4092 157.282 17.3894 157.197 17.3891H144.168C143.916 17.3968 143.696 17.5622 143.629 17.8022Z" fill="white"/>
</g>
</g>
<defs>
<clipPath id="clip0_534_2">
<rect width="157.405" height="60.8831" fill="white" transform="translate(0.346924 0.494995)"/>
</clipPath>
</defs>
</svg>
