<svg width="462" height="70" viewBox="0 0 462 70" fill="none" xmlns="http://www.w3.org/2000/svg">
<path d="M6.28986 18.147V45.7015H23.4486V51.5181H0V18.147H6.28986Z" fill="white"/>
<path d="M56.3466 51.5181H31.3692V18.1469H56.3466V24.2475H37.6154V31.9206H55.6841V37.7809H37.6154V45.3156H56.3466V51.5108V51.5181Z" fill="white"/>
<path d="M83.421 51.6564H76.8909L63.0226 18.1469H70.0769L80.1377 44.1217L90.2423 18.1469H97.2965L83.4283 51.6564H83.421Z" fill="white"/>
<path d="M129.612 51.5181H104.634V18.1469H129.612V24.2475H110.88V31.9206H128.949V37.7809H110.88V45.3156H129.612V51.5108V51.5181Z" fill="white"/>
<path d="M144.339 18.1469V45.7015H161.498V51.5181H138.049V18.1469H144.339Z" fill="white"/>
<path d="M270.602 23.8694H260.017V18.1474H287.47V23.8694H276.885V51.5185H270.595V23.8694H270.602Z" fill="white"/>
<path d="M324.466 51.5181H316.983L307.257 40.3652H301.2V51.5181H294.91V18.1032C300.202 18.1032 305.495 18.1542 310.78 18.1542C318.642 18.2051 322.792 23.4467 322.792 29.2124C322.792 33.7915 320.695 38.4142 314.354 39.6955L324.459 51.0886V51.5181H324.466ZM301.207 24.0145V34.6942H310.787C314.791 34.6942 316.509 32.0224 316.509 29.358C316.509 26.6935 314.748 24.0218 310.787 24.0218H301.207V24.0145Z" fill="white"/>
<path d="M354.306 45.221H336.863L334.002 51.5108H327.188L342.156 18.1469H349.021L363.988 51.5108H357.123L354.313 45.221H354.306ZM345.585 25.1575L339.389 39.3606H351.78L345.585 25.1575Z" fill="white"/>
<path d="M383.055 51.6564H376.525L362.657 18.1469H369.711L379.772 44.1217L389.876 18.1469H396.931L383.062 51.6564H383.055Z" fill="white"/>
<path d="M429.246 51.5181H404.269V18.1469H429.246V24.2475H410.515V31.9206H428.584V37.7809H410.515V45.3156H429.246V51.5108V51.5181Z" fill="white"/>
<path d="M443.975 18.1469V45.7015H461.134V51.5181H437.685V18.1469H443.975Z" fill="white"/>
<path d="M211.591 68.5385C230.166 68.5385 245.224 53.4804 245.224 34.9053C245.224 16.3302 230.166 1.27204 211.591 1.27204C193.016 1.27204 177.958 16.3302 177.958 34.9053C177.958 53.4804 193.016 68.5385 211.591 68.5385Z" stroke="white" stroke-width="1.45598"/>
<path d="M211.59 15.1622C206.916 15.1622 202.432 17.0185 199.127 20.3236C195.822 23.6287 193.965 28.1131 193.965 32.7869C193.965 33.3984 193.995 34.0099 194.06 34.6141C194.206 35.4731 194.941 36.1065 195.815 36.1356H227.358C228.232 36.1138 228.96 35.4731 229.113 34.6141C229.186 34.0099 229.215 33.3984 229.208 32.7869C229.208 23.0536 221.316 15.1622 211.583 15.1622H211.59Z" fill="white"/>
<path d="M236.743 40.7294C236.743 41.654 235.913 42.4184 234.901 42.4184H188.128C187.116 42.4184 186.286 41.6612 186.286 40.7294C186.286 39.7976 187.116 39.0405 188.128 39.0405H234.901C235.913 39.0405 236.743 39.7976 236.743 40.7294Z" fill="white"/>
<path d="M229.843 47.1721C229.843 48.0966 229.013 48.861 228.001 48.861H195.03C194.018 48.861 193.188 48.1039 193.188 47.1721C193.188 46.2402 194.018 45.4831 195.03 45.4831H228.001C229.013 45.4831 229.843 46.2402 229.843 47.1721Z" fill="white"/>
<path d="M221.558 53.6075C221.558 54.532 220.728 55.2964 219.716 55.2964H203.307C202.295 55.2964 201.465 54.5393 201.465 53.6075C201.465 52.6756 202.295 51.9185 203.307 51.9185H219.716C220.728 51.9185 221.558 52.6756 221.558 53.6075Z" fill="white"/>
</svg>
